<svg xmlns="http://www.w3.org/2000/svg" viewBox="0 0 20.52 8.21"><path d="M20.52,4.11v-1l-1,.4L10.54,0l0,.09a5.43,5.43,0,0,1,1.17,1.44,2,2,0,0,0-.43,2H.9c-.48,0-.68-.12-.8-.33H0V5H.1c.12-.22.32-.33.8-.33H11.7a2.13,2.13,0,0,0,.38.41A4.2,4.2,0,0,1,10.5,8.13l0,.08ZM12.19,2.29c1.49-.79,2.54.71,3,2A3.13,3.13,0,0,1,15.3,5l-1.57.52a2.45,2.45,0,0,1-1.54-.48Zm3.68.06a1.75,1.75,0,0,1,.64.9c.29.86-.27,1.45-1.05,1.7l-.07,0a3.5,3.5,0,0,0-.15-.76,7.3,7.3,0,0,0-.92-1.86,1.11,1.11,0,0,1,.8-.28Zm3.5,1.25-2.58,1a2.83,2.83,0,0,0-.14-1.28,2.32,2.32,0,0,0-.5-.87ZM14.82,2a1,1,0,0,0-.58.29,3.41,3.41,0,0,0-.69-.68,5.76,5.76,0,0,1,.86.24Zm-2.88.47.05,0a3.55,3.55,0,0,1,.09.82v.32h-.61A1.31,1.31,0,0,1,11.94,2.44Zm-.1,2.23h.24V5A3.22,3.22,0,0,1,11.84,4.67Zm.35,1.22V5.18a2.33,2.33,0,0,0,1.36.41L12.36,6a.54.54,0,0,1-.16-.1Z" fill="#ECE9E5"/></svg>