<svg xmlns="http://www.w3.org/2000/svg" viewBox="0 0 20.52 8.21">><path d="M20.52,4.11v-1l-1,.4L10.54,0l0,.09a4.1,4.1,0,0,1,1.58,3.14v.32H.9c-.48,0-.68-.12-.8-.33H0V5H.1c.12-.22.32-.33.8-.33H12.08V5A4.12,4.12,0,0,1,10.5,8.13l0,.08ZM12.24,5.92a1.66,1.66,0,0,1,.44-.49l1.55-1.18.3.24c.36.28.62.48.82.67l-1.54.6C13,6.09,12.55,6.18,12.24,5.92Zm3.55-2.47h0V4.81h0c-.15.31-.58.14-1.29-.41l-.24-.18,1.08-.81C15.6,3.21,15.74,3.33,15.79,3.45Zm3.58.15L15.91,4.94V2.36Zm-5-1.78,1.29.47a1.66,1.66,0,0,1-.44.49L14,3.74l-.59-.45a3.7,3.7,0,0,1-1.22-1.2V1.9h0C12.74,1.37,13.33,1.44,14.41,1.82ZM12.19,2.93c.19-.23.59-.06,1.25.44l.52.4L12.59,4.82c-.2.14-.32.1-.4,0Z" fill="#ECE9E5"/></svg>