<svg xmlns="http://www.w3.org/2000/svg" viewBox="0 0 31.91 26.61" fill="#2C2C2C"><path d="M0,10.5l.75,2.05L9.51,13c3,.16,9,.84,9,.84l0-.17a7.36,7.36,0,0,1-4.67-4.1c1.16-2.69,4-5.7,8.17-4.73,5.63,1.29,7.69,8.52,5.77,14-1.7,4.81-5.59,7.37-10.21,6.91s-7-4.49-7.73-5.77l-.28.14c1.42,2.56,4.12,6.13,9.57,6.45,6.31.32,12.63-3.11,12.81-10.66.23-7.92-7-11.62-12-11.62a16.11,16.11,0,0,0-7.33,1.94A7.37,7.37,0,0,1,13.53.12L13.4,0S9,4.56,7,6.39l-4.7,4.22Zm2.55.13L7.07,6.57c2-1.83,3.36-2.64,4.73-1.86l2,5.5c-.46.92-1.25.94-2.91.88Z"/></svg>