<svg viewBox="0 0 53.33 80.69"><path d="M53.33,54.56c-1.48-.69-2.12-1.76-2.12-4.49V28a25.29,25.29,0,0,0,.68-5.86c0-11.36-8.3-18.86-18.8-20.63C23.05-2,12.15.48,6.62,10.4q-.23.4-.42.81a16.28,16.28,0,0,0-2,5.21c-.11.45-.21.89-.3,1.34A25.62,25.62,0,0,0,2.5,26.25a21,21,0,0,0,1.37,7.62V46c0,3.27-.92,7.22-3.87,8.52v.6H9.09a22.16,22.16,0,0,0-3.72,12.6V80.69H6V67.76a21.79,21.79,0,0,1,4-12.6h1.46v-.6a8.61,8.61,0,0,1-.94-.1,18.25,18.25,0,0,1,12.53-7,24.37,24.37,0,0,0,9.26.92C39.84,51.12,44.1,58.88,44.1,69.89v10.8h7V69.89c0-6.15-1.61-11-4.33-14.73h6.53ZM10.46,29.28A31.27,31.27,0,0,1,9.21,19.5a31.34,31.34,0,0,1,5.84-7.87c5.14-5.06,11.48-8,17.44-7.79,5.19,2.62,9.2,8.09,11.27,14.77a27.09,27.09,0,0,1,.17,3V35.68a15.38,15.38,0,0,1-7.4,8.67,22.61,22.61,0,0,1-9.18,1.87C19.39,45.46,13.13,38.41,10.46,29.28Z"/></svg>