<svg xmlns="http://www.w3.org/2000/svg" viewBox="0 0 8.11 20.54"><g id="Layer_2" data-name="Layer 2"><g id="Layer_1-2" data-name="Layer 1"><path d="M4.06,0H3.11L3.5,1,0,10,.09,10a8.33,8.33,0,0,1,.73-.72,9,9,0,0,1,.77,1.41l1.73,3.72v5.24c0,.47-.09.68-.31.8v.09H4.93v-.09c-.21-.12-.32-.33-.32-.8v-5.5c.57-1.07,2.11-4,2.34-4.41a3,3,0,0,1,.32-.47A7.63,7.63,0,0,1,8,10L8.11,10ZM2.2,7.23C2.1,6,2.62,4.94,3.74,4.85a1.6,1.6,0,0,1,1.56.83l.31.82a2.57,2.57,0,0,1,.06.4,2.68,2.68,0,0,1-.22,1.4H2.5A2.83,2.83,0,0,1,2.2,7.23Zm1,1.18H3.5V9.2a1.65,1.65,0,0,1-.91-.74A3.83,3.83,0,0,1,3.19,8.41Zm1.42,0h.31a3.28,3.28,0,0,1,.46,0,1.52,1.52,0,0,1-.77.71ZM3.55,1.15,5,5a3.09,3.09,0,0,0-.54-.17,2.65,2.65,0,0,0-2.59,1Zm-2,9.31A2.85,2.85,0,0,1,1.21,9,3.36,3.36,0,0,1,2,8.6a2.7,2.7,0,0,0,1.34.7H3.5v4.92l-.07.13Zm4-.17-1,1.86V9.25A2.56,2.56,0,0,0,5.8,8.52h0C6.09,8.89,6.06,9.43,5.6,10.29Z"/></g></g></svg>