<svg xmlns="http://www.w3.org/2000/svg" viewBox="0 0 25.05 27.32"><g id="Layer_2" data-name="Layer 2"><g id="Layer_1-2" data-name="Layer 1"><path d="M25.05,27v.28H18.61V27c.67-.31,1.33-.89.35-2.3L11.51,14,6.79,20.45C3.94,24.39,3.63,25.83,5.15,27v.28H0V27C2,26,3.63,24.27,6.4,20.49l4.95-6.75S4.49,3.83,3.67,2.58A7.61,7.61,0,0,0,1,.31V0h6.4V.31a1.3,1.3,0,0,0-.58,1.95l6.52,9.41L16.78,7C19.59,3.12,20,1.48,18.46.31V0h5.15V.31c-1.95,1-3.67,2.81-6.4,6.56L13.5,11.94l8.9,12.8A8.14,8.14,0,0,0,25.05,27Z"/></g></g></svg>