<svg xmlns="http://www.w3.org/2000/svg" viewBox="0 0 20.39 26.65"><g id="Layer_2" data-name="Layer 2"><g id="Layer_1-2" data-name="Layer 1"><path d="M19.25,3.12H13.47A3.27,3.27,0,0,0,10.71.05C8.53-.3,7.2,1.29,6.92,3.12H1.14L0,7.61l.21.11A19.43,19.43,0,0,1,2,5.9a5.22,5.22,0,0,1,.7,2.88V19.3A7.07,7.07,0,0,0,10,26.65c4.55,0,8.36-2.53,8.36-8.08V7.17a3.22,3.22,0,0,1,.17-1.23,19.45,19.45,0,0,1,1.68,1.78l.22-.11Zm-9.62-2a3.25,3.25,0,0,1,3.68,2H7.2A2.85,2.85,0,0,1,9.63,1.11Zm6.28,17.46c0,5-2.59,8.08-7,7.71a6.75,6.75,0,0,1-6-7V9.12c0-1.68.79-3.54,2.29-3.75v0c.47,0,.95,0,1.46,0h8.63v0c.46.27.67.7.67,1.8ZM15.83,5.12H2.89A8.36,8.36,0,0,1,8,3.41h4.35A8.36,8.36,0,0,1,17.5,5.12Z"/><path d="M7.55,7.37H7.49l-.87.41v.16c.18.06.21.26.21,1V20.27c0,.69-.07,1-.21,1.16v.14H7.75v-.14a2,2,0,0,1-.2-1.16Z"/><path d="M10.56,7.37h-.07l-.86.41v.16c.17.06.2.26.2,1V20.27c0,.69-.06,1-.2,1.16v.14h1.13v-.14c-.14-.17-.2-.47-.2-1.16Z"/><path d="M13.86,7.37h-.07l-.86.41v.16c.17.06.2.26.2,1V20.27c0,.69-.06,1-.2,1.16v.14h1.13v-.14c-.14-.17-.2-.47-.2-1.16Z"/></g></g></svg>