<svg xmlns="http://www.w3.org/2000/svg" viewBox="0 0 49.39 93.85"><g id="Layer_2" data-name="Layer 2"><g id="Layer_2-2" data-name="Layer 2"><path d="M34,61.38l1.39-.08.5.46.23-.63L34.85,60l.32-.38.17.13.06.41.35-.21-.12-.9.68-.83L36,57.68l-.38.46-.13,0a3.25,3.25,0,0,1,0-.59l.15-.08h0l0,0A24.7,24.7,0,0,0,49.39,35.33a22.1,22.1,0,0,0-.37-4,22.61,22.61,0,0,0-3.11-12.35l.45-2.52.88-.62-.88-.54-2.17,1.52a.08.08,0,0,0,0,0l1.06-2.5-.91-.94-.54,1.26-1.47.6q-.48-.33-1-.63l.39-2.8L40.57,11l-.19,1.36-.39.29-.59-.85.2-1.06-1,.22-.41,2.2-.26-.06-.1-.15.07-2.66L36.7,9.78l0,1.37-.06,0-1.36-2,.31-1.7-1.62.35-.35,1.89-.77-4.06-1.62-.35L31.5,7l-.37.55a9.61,9.61,0,0,1-1.22-.43l-2.41-1L24.92,0H22l1.17,2.79L21,8.23l-.67-1.54.38-1-1,0-1,2.68-1.58-1.9L15.48,7l1.1,1.34-.19,2.09-.52-.68L16,8.64l-1,.28-.42,3.37L11,9.82l-1.21.77,1.23.84.78,4.07,0,.2-4-2.77-1.07.68,1.09.75.66,3.44-.83-.43-.69-.86L7,15.63l-.84.23-.1.71L6,16.51l-.32-1-.79.67L5.75,19l0,.24a8.86,8.86,0,0,1-.28,1.49,17.6,17.6,0,0,0-3.62,7.76c-.18.87-.31,1.69-.43,2.48A25.56,25.56,0,0,0,0,39.4,19.71,19.71,0,0,0,11.12,57.57v2l.51.22v-.61l.86-.9.78.31-.48.59-.88.08.4.78.33,0-1.1,1.18.24.51.41-.44,1.44-.1-.75.34.28.26C6.2,65.14,1.82,72.2,1.82,80.91V93.85h.62V80.91c0-10,6.68-19.5,17.63-20.38C33,59.46,40.54,68.36,40.54,83.05v10.8h7V83.05C47.58,71.57,42,64.51,34,61.38ZM11,20.61a23.65,23.65,0,0,1,14.39-2.48,31.26,31.26,0,0,1,9.68,2.74,27.84,27.84,0,0,1,6.32,11.42C44.52,43,42.17,54,33.1,58h0v0a16.35,16.35,0,0,1-2.07.76,15.66,15.66,0,0,1-15.3-3.49l-.1-.18-.06,0A27.07,27.07,0,0,1,8,42.44C5.6,34.24,6.44,25.87,11,20.61Z"/></g></g></svg>