<svg xmlns="http://www.w3.org/2000/svg" viewBox="0 0 8.21 20.52"><g id="Layer_2" data-name="Layer 2"><g id="Layer_1-2" data-name="Layer 1"><path d="M4.11,0h-1l.4,1L0,10l.09,0A7.32,7.32,0,0,1,1,9.16a2.7,2.7,0,0,0,2.52,2.17v8.3c0,.47-.12.68-.33.8v.09H5v-.09c-.22-.12-.33-.33-.33-.8V11.28A3.25,3.25,0,0,0,7.08,9.09,6.52,6.52,0,0,1,8.13,10l.08,0ZM5.89,8.33h-4a.35.35,0,0,1,0-.08A2.22,2.22,0,0,1,3.31,5.73,2.19,2.19,0,0,1,5.82,6.87C6.1,7.63,6.17,8,5.89,8.33ZM3.6,1.15,5.36,5.7a3.48,3.48,0,0,0-1.13-.18A3.36,3.36,0,0,0,1.61,6.79c0-.2.12-.42.21-.68ZM2,9.08c0-.13-.06-.26-.09-.39a3.62,3.62,0,0,1,1.33-.25h.32v2.63A3,3,0,0,1,2,9.08ZM4.9,11.14a.93.93,0,0,1-.23,0V8.44H5a3.66,3.66,0,0,1,1.39.27A2.19,2.19,0,0,1,4.9,11.14Z"/></g></g></svg>