<svg xmlns="http://www.w3.org/2000/svg" viewBox="0 0 8.21 20.52"><g id="Layer_2" data-name="Layer 2"><g id="Layer_1-2" data-name="Layer 1"><path d="M4.11,0h-1l.4,1L0,10l.09,0A4.07,4.07,0,0,1,3.23,8.44h.32V19.63c0,.47-.12.68-.33.8v.09H5v-.09c-.22-.12-.33-.33-.33-.8V8.44H5A4.09,4.09,0,0,1,8.13,10l.08,0ZM6,7.91H4.47L3.7,7.16l1.81-1h0l.23.59a3.31,3.31,0,0,1,.3,1.19ZM3.6,1.15,5.35,5.66l-.06,0L3.34,6.81,3,6.44a10,10,0,0,1-.91-1Zm-1.78,5,0-.09c.2-.24.49-.09,1.12.51L4.4,7.91H1.92a.5.5,0,0,1-.33-.09A2.74,2.74,0,0,1,1.82,6.11Z"/></g></g></svg>