<svg xmlns="http://www.w3.org/2000/svg" viewBox="0 0 8.21 20.52"><g id="Layer_2" data-name="Layer 2"><g id="Layer_1-2" data-name="Layer 1"><path d="M4.11,0h-1l.4,1L0,10l.09,0A4.07,4.07,0,0,1,3.23,8.44h.32V19.63c0,.47-.12.68-.33.8v.09H5v-.09c-.22-.12-.33-.33-.33-.8V8.44H5A4.09,4.09,0,0,1,8.13,10l.08,0ZM5.92,8.29a1.7,1.7,0,0,1-.49-.45L4.25,6.3,4.49,6c.28-.36.48-.62.67-.82l.6,1.54C6.09,7.56,6.18,8,5.92,8.29ZM3.45,4.73H4.81c.31.15.14.59-.41,1.29l-.18.24L3.41,5.18C3.21,4.93,3.33,4.79,3.45,4.73ZM3.6,1.15,4.94,4.62H2.36Zm-1.78,5,.47-1.29a1.66,1.66,0,0,1,.49.44l1,1.27-.45.58a3.7,3.7,0,0,1-1.2,1.22H1.9C1.37,7.78,1.44,7.19,1.82,6.11ZM2.93,8.33c-.23-.18-.06-.59.44-1.25l.4-.51L4.82,7.94c.14.19.1.32,0,.39Z"/></g></g></svg>