<svg width="130" height="52" viewBox="0 0 130 52" fill="none" xmlns="http://www.w3.org/2000/svg">
<path d="M130 26.0317L130 19.6979L123.665 22.2314L66.6472 -2.76924e-06L66.6472 0.570034C69.5927 3.15883 72.0589 6.24622 73.9328 9.69062C72.3694 11.3549 71.285 13.4108 70.7943 15.6406C70.3036 17.8705 70.4249 20.1915 71.1452 22.3581L5.63841 22.3581C2.66083 22.3581 1.33041 21.598 0.570174 20.268L-8.85941e-07 20.268L-1.38428e-06 31.6687L0.570174 31.6687C1.33041 30.2753 2.66083 29.5786 5.63841 29.5786L74.0595 29.5786C74.7793 30.5172 75.5853 31.3866 76.4669 32.1754C76.3057 35.9098 75.3458 39.5664 73.6519 42.8987C71.958 46.231 69.5695 49.1617 66.6472 51.4933L66.6472 52L130 26.0317ZM77.2271 14.5043C86.6667 9.50061 93.3187 19.0012 96.2329 27.1717C96.6371 28.639 96.871 30.1479 96.9298 31.6687L86.9834 34.9622C83.4813 35.0789 80.0427 34.0074 77.2271 31.922L77.2271 14.5043ZM100.541 14.8843C102.496 16.2872 103.941 18.2881 104.659 20.5847C106.496 26.0317 102.885 29.7686 98.3236 31.352L97.8801 31.352C97.7425 29.7172 97.4238 28.1028 96.9298 26.5384C95.5635 22.3401 93.5777 18.3693 91.038 14.7576C92.4493 13.5157 94.2925 12.8787 96.1696 12.9842L100.541 14.8843ZM122.714 22.8015L106.306 29.1352C106.66 26.4055 106.378 23.6309 105.482 21.028C104.816 18.9932 103.738 17.1174 102.315 15.5177L122.714 22.8015ZM93.8889 12.6675C92.4715 12.8411 91.1543 13.4883 90.1511 14.5043C88.9002 12.7759 87.3818 11.2579 85.653 10.0073C87.5267 10.3714 89.3694 10.8796 91.1647 11.5274L93.8889 12.6675ZM75.6433 15.6443L75.96 15.6443C76.3201 17.3527 76.5111 19.0923 76.5302 20.838L76.5302 22.8648L72.6657 22.8648C72.4984 21.4789 72.6836 20.0732 73.204 18.7779C73.7245 17.4825 74.5635 16.3394 75.6433 15.4543L75.6433 15.6443ZM75.0097 29.7686L76.5302 29.7686L76.5302 31.6687C75.9564 31.0232 75.4472 30.3232 75.0097 29.5786L75.0097 29.7686ZM77.2271 37.4957L77.2271 32.8088C79.6982 34.5274 82.6429 35.4349 85.653 35.4056L78.2407 38.0024C77.8758 37.838 77.5348 37.625 77.2271 37.3691L77.2271 37.4957Z" fill="#ECE9E5"/>
</svg>
