<svg width="156" height="156" viewBox="0 0 156 156" fill="none" xmlns="http://www.w3.org/2000/svg">
<rect x="0.5" y="0.5" width="155" height="155" stroke="#2C2C2C"/>
<circle cx="78" cy="78" r="77.5" stroke="#2C2C2C"/>
<path d="M78.565 82.7109H74.1538L75.9965 84.0885L67.6206 91.0592C65.9168 92.4763 63.9209 93.5105 61.7715 94.09V94.2277H68.4024V94.09C66.0013 93.3461 66.2805 92.547 68.0673 91.0592L76.2058 84.2539L86.1312 91.8858C87.6947 93.0843 88.1275 93.6629 86.7454 94.09V94.2277H95.2748V94.09C93.1975 93.3696 91.2403 92.3481 89.4676 91.0592C87.8203 89.8056 78.565 82.7109 78.565 82.7109Z" fill="#2C2C2C"/>
<path d="M133.028 57.5031C131.64 58.3751 129.447 58.7212 124.299 58.4858L109.838 57.5308L109.977 54.458C110.588 42.139 101.678 33.4741 80.9868 32.5329C60.2954 31.5917 50.5256 39.3706 49.9566 51.7312L49.5264 61.1988H49.8178C45.9266 66.9193 43.8875 73.6923 43.9754 80.6047C43.9754 96.2733 54.9803 106.392 69.2325 109.049L69.9125 109.243C56.7289 112.385 47.9582 123.569 47.9582 138.061V155.972H48.8325V138.061C48.8325 124.482 57.8529 111.499 72.5909 109.963C75.704 110.601 78.9003 110.732 82.0554 110.35C94.5452 112.994 101.706 124.302 101.706 141.051V156H111.42V141.023C111.42 122.545 100.929 112.343 86.9403 109.326C93.7044 107.358 99.6425 103.248 103.857 97.616C109.464 91.4006 112.538 83.3183 112.475 74.9573C112.514 70.7299 111.599 66.5479 109.797 62.7214L124.035 63.4411C129.17 63.6764 131.362 64.2163 132.639 65.2821H133.666L134.013 57.5031H133.028ZM99.777 96.1211H95.5305V96.2179C97.4872 96.7855 97.3484 97.3806 95.9329 98.5156L93.8374 100.274C91.9383 101.23 89.9363 101.969 87.8701 102.474L81.4448 97.8789C80.168 96.9654 79.7933 96.4948 80.9868 96.2041V96.1211H73.9786V96.2179C75.4095 96.6438 76.7769 97.2583 78.0448 98.045L77.4897 98.5156L72.2578 102.751C71.0227 102.502 69.8015 102.211 68.608 101.851L63.057 97.8928C61.7803 96.9792 61.4056 96.5086 62.5991 96.2179V96.1211H60.1982C57.9351 92.6225 56.2091 88.8062 55.0774 84.7987C52.4823 76.0231 52.6072 67.0538 55.7435 60.133C56.7705 60.133 57.964 60.133 59.4211 60.133L97.9035 62.057C99.404 64.798 100.6 67.6942 101.47 70.6941C103.954 79.2759 103.885 87.9822 100.943 94.8892C100.568 95.3598 100.179 95.7335 99.777 96.1211Z" fill="#2C2C2C"/>
</svg>
