<svg width="156" height="156" viewBox="0 0 156 156" fill="none" xmlns="http://www.w3.org/2000/svg">
<path d="M118.309 125.252C116.07 124.088 115.102 122.189 115.102 117.596V70.7236C115.255 69.2843 115.331 67.8377 115.329 66.3901C115.329 48.9337 102.684 37.4339 86.7274 34.7695C71.5568 29.3794 55.1308 33.2076 46.7212 48.3671C44.6975 52.0213 43.2868 55.9901 42.5466 60.1119C41.251 64.1557 40.6175 68.3868 40.6711 72.6376C40.6221 77.3298 41.6036 81.9743 43.5449 86.2353V110.735C43.5449 116.309 42.1533 123.062 37.6914 125.267V126.308H44.6944C43.8082 129.529 43.3654 132.858 43.3785 136.2V156H44.3163V136.185C44.3455 132.831 44.855 129.499 45.8288 126.293H54.9039V125.252C53.3914 125.053 54.3443 125.681 53.1191 124.838C52.3357 122.241 52.292 119.472 52.993 116.85C53.6939 114.228 55.1112 111.859 57.0819 110.016C60.9976 107.227 65.5649 105.522 70.3316 105.07C71.224 105.254 72.1315 105.407 73.0391 105.514C76.7129 106.458 80.5076 106.83 84.2922 106.616C95.6059 110.904 101.943 122.787 101.943 139.462V156H112.531V139.462C112.579 135 111.941 130.557 110.64 126.293H118.203L118.309 125.252ZM103.29 61.7504C103.501 62.4854 103.668 63.2816 103.849 63.986C104 65.6398 104.091 67.3395 104.091 69.0851V84.5049C103.985 84.8878 103.864 85.2706 103.758 85.6534C97.9503 93.6772 88.6332 98.1944 76.9867 97.9035C71.8399 97.785 66.7627 96.6728 62.0279 94.6266C57.6279 89.6514 54.4236 83.7137 52.6654 77.2774C51.2424 72.3635 50.6041 67.251 50.7747 62.1332C53.067 57.7362 56.0216 53.7273 59.5322 50.2506C67.3217 42.4717 76.9716 37.9239 86.0467 38.322C94.048 42.4411 100.234 51.154 103.29 61.7504Z" fill="#2C2C2C"/>
<path d="M78.061 75.3828H73.2361L75.2516 76.8785L66.0905 84.4467C64.2278 85.9982 62.038 87.1269 59.6777 87.7521V87.9017H66.9455V87.7521C64.3193 86.9445 64.6247 86.062 66.5791 84.4467L75.4806 77.1029L86.3365 85.3889C88.0313 86.7051 88.5198 87.3333 86.993 87.797V87.9466H96.322V87.797C94.0528 87.0124 91.9168 85.8981 89.9856 84.4915L78.061 75.3828Z" fill="#2C2C2C"/>
<circle cx="78" cy="78" r="77.5" stroke="#2C2C2C"/>
<rect x="0.5" y="0.5" width="155" height="155" stroke="#2C2C2C"/>
</svg>
