<svg width="156" height="157" viewBox="0 0 156 157" fill="none" xmlns="http://www.w3.org/2000/svg">
<rect x="0.5" y="0.5" width="155" height="155" stroke="#2C2C2C"/>
<circle cx="78" cy="78.0469" r="77.5" stroke="#2C2C2C"/>
<path d="M83.777 107.571C99.1821 104.454 113 91.5516 113 73.1839C113 60.128 105.078 50.7344 93.9951 46.4151C93.8109 46.3172 93.655 46.1914 93.4849 46.0935C91.7194 45.1204 89.8639 44.3153 87.9436 43.6892C87.4177 42.9391 86.9442 42.1545 86.5264 41.3409L78.0231 25H74.6076L76.0248 27.7957L69.534 41.3688C69.1251 42.2588 68.6514 43.1183 68.1168 43.9409C61.7023 46.0675 56.1031 50.0827 52.0739 55.4452C46.1215 61.8214 42.8751 70.2065 43.0037 78.8731C43.0037 94.7387 54.3414 104.971 68.9104 107.613C54.9083 110.478 45.583 121.969 45.583 136.898V155H46.4617V136.898C46.4617 122.919 55.9287 109.64 71.4472 108.41C89.7718 106.914 100.458 119.355 100.458 139.889V155H110.378V139.889C110.435 120.515 98.8845 110.157 83.777 107.571ZM54.3414 83.1226C51.507 73.3376 51.918 63.3011 56.2121 56.0043C63.0006 49.8677 72.4534 47.5054 83.1392 49.8398C86.8598 50.6563 90.4338 52.023 93.74 53.8935C97.5042 58.2739 100.265 63.4045 101.832 68.9344C106.424 84.9677 102.258 101.532 86.9374 105.922C71.6173 110.311 59.0041 99.086 54.3414 83.1226Z" fill="#2C2C2C"/>
</svg>
