<svg width="156" height="156" viewBox="0 0 156 156" fill="none" xmlns="http://www.w3.org/2000/svg">
<rect x="0.5" y="0.5" width="155" height="155" stroke="#2C2C2C"/>
<path d="M155.5 78.0231C155.5 120.812 120.802 155.499 78 155.499C35.1978 155.499 0.5 120.812 0.5 78.0231C0.5 35.2343 35.1978 0.546875 78 0.546875C120.802 0.546875 155.5 35.2343 155.5 78.0231Z" stroke="#2C2C2C"/>
<path d="M105.56 104.567H114V103.905C101.862 102.329 112.886 94.1509 112.886 76.0074C112.998 74.8613 113.05 73.7103 113.043 72.5589C113.043 54.1479 97.3351 43 79.1993 43C61.0636 43 42.5137 56.3437 42.5137 78.3581C42.5137 79.2026 42.5137 80.0331 42.6137 80.8494C43.3705 97.318 52.6097 102.385 41 103.905V104.567H59.7355C62.5686 105.827 65.5463 106.744 68.6035 107.298C54.509 110.113 45.1127 121.739 45.1127 136.786V155H45.998V136.786C45.998 122.71 55.5372 109.339 71.1596 108.086C89.5524 106.58 100.405 119.107 100.405 139.798V155H110.401V139.798C110.401 120.289 98.7774 109.859 83.5548 107.241C86.403 106.672 89.1734 105.775 91.8087 104.567H105.56ZM53.8521 82.623C49.154 66.4782 53.3523 49.7985 68.7748 45.4069C84.1974 41.0153 96.9353 52.3322 101.619 68.3503C106.303 84.3684 102.162 101.175 86.725 105.58C71.2881 109.986 58.6217 98.6411 53.8521 82.623Z" fill="#2C2C2C"/>
<path d="M93.0145 89.4389C92.8918 89.4351 92.7697 89.4559 92.6553 89.5C92.5409 89.5441 92.4366 89.6106 92.3485 89.6957C92.2604 89.7807 92.1904 89.8825 92.1426 89.995C92.0948 90.1075 92.0703 90.2285 92.0703 90.3506C92.0703 90.5962 92.1683 90.8317 92.3427 91.0054C92.517 91.179 92.7535 91.2766 93.0002 91.2766C93.2468 91.2766 93.4833 91.179 93.6577 91.0054C93.832 90.8317 93.93 90.5962 93.93 90.3506C93.93 90.1088 93.8336 89.8769 93.6619 89.706C93.4902 89.535 93.2573 89.4389 93.0145 89.4389Z" fill="#2C2C2C"/>
</svg>
