<svg width="156" height="156" viewBox="0 0 156 156" fill="none" xmlns="http://www.w3.org/2000/svg">
<rect x="0.5" y="0.5" width="155" height="154.952" stroke="#2C2C2C"/>
<path d="M155.5 78.0231C155.5 120.812 120.802 155.499 78 155.499C35.1978 155.499 0.5 120.812 0.5 78.0231C0.5 35.2343 35.1978 0.546875 78 0.546875C120.802 0.546875 155.5 35.2343 155.5 78.0231Z" stroke="#2C2C2C"/>
<path d="M116.061 57.5696C115.998 57.1936 115.826 56.8443 115.566 56.5646C115.307 56.2849 114.971 56.0871 114.601 55.9956C115.03 55.4788 115.29 54.8429 115.345 54.1739H115.433L115.199 52.4105L114.849 52.3231C114.635 51.9476 114.328 51.6336 113.957 51.4115C113.586 51.1894 113.164 51.0666 112.732 51.0552L113.126 50.9532L114.382 50.6325C114.084 49.9081 113.541 49.3112 112.847 48.9462C112.153 48.5812 111.352 48.4714 110.586 48.636C110.849 48.0568 110.935 47.413 110.834 46.7851C110.813 46.6665 110.784 46.5496 110.746 46.4353L111.213 45.4589C110.743 44.8726 110.162 44.3826 109.505 44.0161L109.929 43.8704C109.651 43.185 109.149 42.6134 108.505 42.2484C107.861 41.8833 107.113 41.7461 106.381 41.8592C106.256 41.4708 106.038 41.1188 105.745 40.8342C105.452 40.5496 105.094 40.3411 104.702 40.227C104.702 39.9792 104.702 39.7315 104.6 39.5129C104.379 38.2713 103.674 37.1676 102.64 36.4438C101.605 35.7199 100.326 35.4347 99.081 35.6508C98.1984 35.7979 97.3891 36.232 96.7792 36.8856C96.1693 37.5393 95.7928 38.3758 95.7085 39.2651C95.4809 39.3164 95.2604 39.3946 95.0515 39.4983C95.0588 39.3915 95.0588 39.2844 95.0515 39.1777C94.9945 38.7712 94.8551 38.3806 94.6417 38.0298C94.4284 37.679 94.1455 37.3753 93.8105 37.1374C93.72 36.8938 93.5972 36.6635 93.4455 36.4524L94.1025 36.2775C93.8658 35.6754 93.4515 35.1593 92.9144 34.7976C92.3774 34.4358 91.7428 34.2455 91.0949 34.2518L91.3139 34.0769C90.6107 33.4867 89.7062 33.1905 88.7893 33.2502C87.8725 33.31 87.0142 33.721 86.3938 34.3975C86.0015 34.7776 85.6626 35.209 85.3864 35.68C84.788 35.7313 84.2066 35.9049 83.6783 36.1901C83.1995 36.0667 82.6971 36.0667 82.2183 36.1901C81.9735 35.9837 81.6821 35.8401 81.3692 35.7715C81.0563 35.7029 80.7314 35.7115 80.4225 35.7966C80.3316 35.5446 80.2193 35.3008 80.0867 35.0679C80.2401 34.8198 80.4214 34.59 80.6269 34.3829C81.2425 33.9117 81.9723 33.6122 82.7419 33.5149C83.5114 33.4176 84.2931 33.526 85.0069 33.8291L84.0287 32.3718C82.7998 32.5213 81.6576 33.0811 80.7875 33.9603C80.4725 34.2713 80.2023 34.6244 79.9845 35.0096C79.7572 34.6099 79.4773 34.2423 79.1524 33.9166L78.8458 33.4648C79.3973 33.4937 79.9424 33.5966 80.4663 33.7708L79.4881 32.3135C78.8527 32.4016 78.2361 32.5936 77.6632 32.8818C77.24 32.6837 76.7698 32.6073 76.3055 32.6614C75.8413 32.7154 75.4013 32.8978 75.0352 33.1879C74.7512 33.4572 74.5569 33.8071 74.4786 34.1903C74.4002 34.5734 74.4417 34.9713 74.5972 35.3302C74.2584 35.1653 73.8865 35.0796 73.5095 35.0796C73.1326 35.0796 72.7607 35.1653 72.4219 35.3302L72.7285 35.0679L73.7212 34.2372C73.1368 33.7136 72.3865 33.412 71.6016 33.3854C70.8168 33.3587 70.0476 33.6087 69.4289 34.0915C68.8914 33.8589 68.3193 33.7161 67.7353 33.6688C67.176 33.6373 66.6174 33.7431 66.1084 33.9768C65.5994 34.2105 65.1554 34.5651 64.8154 35.0096C63.9791 34.7861 63.099 34.7842 62.2618 35.004C61.4245 35.2238 60.6592 35.6577 60.0413 36.2629C59.5901 36.6095 59.2194 37.0494 58.9548 37.5526C58.6901 38.0557 58.5378 38.6101 58.5083 39.1777C57.9357 39.1394 57.3633 39.2543 56.85 39.5105C56.3368 39.7667 55.9013 40.1549 55.5883 40.635C55.1761 40.4613 54.736 40.3626 54.289 40.3435C53.9736 40.2877 53.65 40.2981 53.3389 40.374C53.0277 40.4498 52.7358 40.5896 52.4817 40.7842C52.2276 40.9789 52.0169 41.2243 51.8631 41.5047C51.7092 41.7851 51.6155 42.0945 51.588 42.413C51.296 44.7156 53.9386 45.0217 55.6175 45.6484C55.437 45.864 55.2803 46.0986 55.1504 46.3479C54.8213 47.0246 54.6184 47.7555 54.5518 48.5048H54.3182C54.309 47.8892 54.1158 47.2903 53.7634 46.7851C53.4325 46.2223 52.9083 45.7984 52.2881 45.5921C51.6679 45.3857 50.9938 45.4109 50.3908 45.6629L50.6974 45.4006L51.6902 44.5991C50.981 44.0009 50.0666 43.7015 49.1403 43.7641C48.214 43.8266 47.3483 44.2462 46.7263 44.9342C46.0938 45.5376 45.5962 46.2677 45.2663 47.0766C44.7512 47.2617 44.307 47.6028 43.9955 48.0522C43.684 48.5016 43.5209 49.0368 43.5289 49.5832C43.5433 49.8865 43.6371 50.1808 43.8011 50.4365C43.965 50.6923 44.1934 50.9006 44.4633 51.0406C44.0898 51.262 43.7824 51.579 43.5727 51.9587V51.2884C42.6889 51.4944 41.9178 52.0308 41.4181 52.7872C40.9184 53.5435 40.7281 54.4623 40.8864 55.3544C40.969 56.1069 41.2061 56.8343 41.5829 57.4913C41.9597 58.1482 42.4681 58.7206 43.0764 59.1727L42.799 59.333C40.2878 61.0964 40.609 63.8217 42.0106 65.9349C42.1607 66.1462 42.3267 66.346 42.507 66.5324C42.542 66.7991 42.6158 67.0593 42.726 67.3048C38.9446 81.6452 45.6459 93.9454 57.2235 101.028C57.1298 101.242 57.0815 101.473 57.0815 101.706C57.0815 101.939 57.1298 102.17 57.2235 102.384L57.0775 102.165L56.4935 101.48C56.081 101.966 55.8733 102.593 55.9142 103.229C55.955 103.865 56.2412 104.46 56.7125 104.89C57.124 105.319 57.6215 105.657 58.1725 105.881C58.3033 106.238 58.5425 106.545 58.8566 106.759C59.1707 106.973 59.5441 107.084 59.9245 107.076C60.1307 107.062 60.3296 106.994 60.5012 106.879C60.6729 106.764 60.8113 106.606 60.9027 106.42C61.0491 106.688 61.2663 106.909 61.5304 107.062H61.0633C61.1745 107.613 61.4804 108.106 61.9252 108.451C62.37 108.796 62.9242 108.97 63.4868 108.942C53.1356 113.824 46.5803 124.273 46.5803 137.142V155.971H47.4855V137.142C47.4855 122.568 57.2381 108.723 73.2103 107.441C92.0585 105.867 103.111 118.852 103.111 140.26V156H113.33V140.231C113.33 123.136 104.819 112.775 92.7593 108.359L92.8615 108.242C93.1254 108.245 93.3856 108.181 93.6179 108.056C93.8502 107.931 94.0471 107.749 94.1901 107.528C94.2943 107.354 94.3493 107.155 94.3493 106.952C94.3493 106.75 94.2943 106.551 94.1901 106.377C94.4663 106.494 94.7666 106.544 95.0661 106.522C95.4759 106.526 95.8729 106.38 96.1821 106.111C96.4914 105.843 96.6916 105.471 96.7451 105.065V105.313L96.8764 106.114C97.3489 105.968 97.7544 105.659 98.0214 105.243C98.2885 104.827 98.4 104.331 98.3364 103.841L98.9496 104.307C99.6408 103.965 100.196 103.4 100.526 102.704C100.801 102.308 100.909 101.821 100.827 101.347C100.745 100.873 100.48 100.449 100.088 100.168C106.79 95.509 111.666 88.6745 113.885 80.8291C115.358 75.9696 115.535 70.8103 114.396 65.862L114.557 65.6725H114.644L115.447 64.0694L115.199 63.8071C115.233 63.3779 115.155 62.9472 114.973 62.5567C114.792 62.1661 114.513 61.8288 114.163 61.5773L114.542 61.7085L115.769 62.1457C115.853 61.7624 115.859 61.3661 115.786 60.9804C115.713 60.5948 115.563 60.2277 115.345 59.9014C115.674 59.6207 115.916 59.2523 116.043 58.8393C116.169 58.4264 116.175 57.9859 116.061 57.5696ZM115.842 58.2983C115.9 58.5659 115.882 58.8447 115.789 59.1024C115.696 59.3602 115.532 59.5866 115.316 59.7556C114.752 58.988 113.952 58.4251 113.038 58.1525C112.445 57.9849 111.829 57.9159 111.213 57.9485L111.053 57.657C111.466 57.6296 111.877 57.5662 112.279 57.4676C112.489 57.41 112.694 57.3369 112.892 57.249C114.294 57.2198 115.593 57.2344 115.842 58.2983ZM96.1611 51.9733C95.9194 51.6017 95.7279 51.1999 95.5917 50.7783C96.1347 50.9394 96.713 50.9394 97.256 50.7783C97.999 51.7478 98.677 52.7653 99.2854 53.8242C98.4116 53.8094 97.5783 53.4536 96.9641 52.8332C96.8818 52.5618 96.8232 52.2839 96.7889 52.0025H96.7013L96.5261 52.3959L96.1611 51.9733ZM92.7009 50.1079C92.2517 49.964 91.862 49.6774 91.5913 49.2918C92.0763 49.3487 92.5663 49.3487 93.0513 49.2918C93.3961 49.4713 93.7733 49.5803 94.1609 49.6124C94.1537 49.7386 94.1537 49.8651 94.1609 49.9913C93.703 50.1998 93.1862 50.2411 92.7009 50.1079ZM90.146 46.96C89.873 46.5404 89.6616 46.084 89.5182 45.6046H89.6058C90.0624 45.46 90.4813 45.2161 90.8322 44.8905C90.9637 45.107 91.126 45.3034 91.3139 45.4735C91.1643 45.9964 91.1432 46.5476 91.2525 47.0804C91.3618 47.6132 91.5982 48.1118 91.9417 48.5339C91.5516 48.3665 91.1954 48.1295 90.8906 47.8344C90.8083 47.563 90.7497 47.2851 90.7154 47.0037H90.6278L90.4526 47.3826L90.146 46.96ZM86.569 43.8704C86.8408 43.5775 87.0851 43.2604 87.299 42.9231C87.664 43.0688 88.0144 43.2291 88.3502 43.3894C88.116 43.9269 88.0015 44.5086 88.0144 45.0946C87.455 44.7877 86.9634 44.3713 86.569 43.8704ZM76.0572 42.413C75.9076 42.0488 75.737 41.6936 75.5462 41.3491C76.4573 41.2436 77.3737 41.1901 78.291 41.1888H78.5246C77.6486 41.5969 76.7872 42.1361 76.0572 42.413ZM60.0997 44.8468C59.7639 45.0217 59.4427 45.2257 59.1069 45.4152L59.6179 44.5553C59.7854 44.6406 59.9464 44.738 60.0997 44.8468ZM68.3631 35.1262C68.5442 34.8984 68.7611 34.7015 69.0055 34.5432C69.7022 35.0611 70.2672 35.735 70.6553 36.5107L69.1077 37.8369C68.6979 37.6162 68.2676 37.4356 67.8229 37.2977C67.7558 36.9181 67.7692 36.5288 67.8622 36.1547C67.9553 35.7807 68.1259 35.4303 68.3631 35.1262ZM73.0059 39.6732C73.1753 39.8461 73.3611 40.0022 73.5606 40.1395C73.5606 40.227 73.5606 40.329 73.6336 40.4164C73.2948 40.2515 72.9229 40.1658 72.546 40.1658C72.169 40.1658 71.7971 40.2515 71.4583 40.4164L71.7649 40.1541L72.7139 39.3525C72.8057 39.4643 72.9032 39.5713 73.0059 39.6732ZM75.006 38.1138C75.1885 37.9923 75.4002 37.9218 75.6192 37.9098L75.8528 38.1138L75.9696 38.4053C75.7205 38.5743 75.4904 38.7697 75.2834 38.9882C75.0782 39.1889 74.8925 39.4085 74.7286 39.644C74.5934 39.3932 74.55 39.1031 74.606 38.8238C74.662 38.5445 74.8137 38.2934 75.0352 38.1138H75.006ZM90.2044 34.8056L87.4742 37.1228C87.4306 37.0039 87.3717 36.8912 87.299 36.7876C87.3906 36.3815 87.5683 35.9996 87.8202 35.6678C88.072 35.336 88.3921 35.0618 88.759 34.8639C89.104 34.7056 89.4751 34.6118 89.854 34.587L90.2044 34.8056ZM92.8031 36.467L89.6934 37.2831C88.9895 37.1459 88.2657 37.1459 87.5618 37.2831C87.5618 37.2831 87.5618 37.2831 87.5618 37.1956L89.4452 35.6071C89.7716 35.3219 90.1695 35.1306 90.5963 35.0536C91.0232 34.9766 91.463 35.0168 91.8687 35.1699C92.2858 35.5158 92.6074 35.9622 92.8031 36.467ZM92.7155 40.2998C92.3691 40.3175 92.0261 40.3762 91.6935 40.4747C91.1759 40.6436 90.6845 40.884 90.2336 41.1888C89.5517 40.9656 88.8308 40.8862 88.1166 40.9556C88.2569 40.1138 88.0744 39.2501 87.6056 38.5364C87.6334 38.3431 87.6334 38.1468 87.6056 37.9535L88.029 37.8369C89.0064 38.0808 89.8995 38.5844 90.6132 39.2942H90.7008L90.5256 37.4871C90.3504 37.4871 90.1606 37.3997 89.9708 37.356L91.7227 36.9042C92.0358 36.8192 92.3629 36.7987 92.6841 36.8438C93.0053 36.8889 93.3141 36.9987 93.5915 37.1665C93.7212 37.7202 93.709 38.2976 93.5558 38.8452C93.4027 39.3929 93.1137 39.8932 92.7155 40.2998ZM96.1757 40.2998C96.3953 40.3358 96.6106 40.3944 96.8181 40.4747L96.2341 41.4657C96.17 41.1002 96.1504 40.7283 96.1757 40.3581V40.2998ZM106.395 43.1125C106.395 43.2146 106.395 43.302 106.395 43.3894C105.941 43.4479 105.512 43.6315 105.156 43.9198C104.8 44.2081 104.532 44.5897 104.381 45.0217C104.381 45.0217 104.381 45.0946 104.381 45.1237L103.008 45.488C102.974 44.6882 103.205 43.8994 103.665 43.2437L103.914 42.9377C104.227 42.637 104.608 42.4153 105.024 42.2911C105.441 42.1669 105.881 42.1437 106.308 42.2235C106.38 42.5341 106.414 42.8521 106.41 43.1708L106.395 43.1125ZM106.6 43.506C106.933 43.45 107.274 43.45 107.607 43.506C107.944 43.5966 108.261 43.7499 108.542 43.9578L106.454 44.497C106.527 44.1905 106.576 43.8786 106.6 43.5643V43.506ZM105.68 44.7739L104.979 44.9488C104.922 44.7686 104.922 44.5752 104.979 44.395C105.109 44.1605 105.293 43.961 105.517 43.8137C105.741 43.6664 105.997 43.5758 106.264 43.5498C106.17 44.0134 105.975 44.451 105.695 44.8322L105.68 44.7739ZM109.286 49.6998C109.324 49.5122 109.324 49.3191 109.286 49.1315C109.555 49.034 109.834 48.9703 110.118 48.942C109.886 49.2402 109.605 49.4965 109.286 49.6998ZM106.366 51.6964L105.563 50.9094C105.995 50.9532 106.431 50.9532 106.863 50.9094C106.689 51.1552 106.542 51.4191 106.425 51.6964H106.366ZM89.2992 43.8704L89.4744 43.9724H89.2846L89.2992 43.8704ZM86.6858 43.0397C86.67 42.9167 86.6456 42.7949 86.6128 42.6753L86.8902 42.7773L86.6858 43.0397ZM73.619 45.6338C73.1437 45.55 72.7083 45.3148 72.3781 44.9634C72.1724 44.7109 72.021 44.4189 71.9331 44.1055C71.8452 43.7921 71.8227 43.4641 71.8671 43.1417C72.0749 42.9504 72.3385 42.8303 72.6195 42.7989C72.9004 42.7674 73.1841 42.8263 73.4292 42.9668C73.7856 43.2345 74.0263 43.6277 74.1023 44.0664C74.1782 44.5051 74.0837 44.9562 73.838 45.3277C73.7744 45.4361 73.7011 45.5386 73.619 45.6338ZM67.9397 44.9197L67.6769 44.5845C67.9567 44.3958 68.2884 44.299 68.6259 44.3076C68.412 44.5276 68.1827 44.7321 67.9397 44.9197ZM63.005 50.0204C62.7249 50.1637 62.4146 50.2384 62.0998 50.2384C61.7851 50.2384 61.4748 50.1637 61.1947 50.0204C60.9814 49.9082 60.7928 49.7546 60.6399 49.5687C61.2597 48.8168 61.9226 48.1015 62.6254 47.4263C62.733 47.4844 62.8453 47.5332 62.9612 47.5721C63.0959 47.7117 63.218 47.8629 63.3262 48.0239C63.4175 48.7064 63.3059 49.4007 63.005 50.0204ZM65.0782 41.2763C65.4392 41.5255 65.8259 41.7356 66.2316 41.9029L66.071 42.3256L65.0928 42.6462L64.6694 42.413L64.246 42.1944C64.7707 42.0311 65.317 41.9476 65.8666 41.9466V41.8592L65.0782 41.2763ZM69.7355 40.0812L68.8157 39.3817H68.9909C69.2982 39.5157 69.5577 39.7392 69.7355 40.0229V40.0812ZM79.4735 39.0173C79.6389 38.6603 79.8719 38.3386 80.1597 38.0701C80.305 38.227 80.4783 38.3555 80.6707 38.449C80.3598 38.6569 80.0712 38.8962 79.8093 39.1631C79.5942 39.3785 79.3988 39.6126 79.2253 39.8626C79.2497 39.6597 79.2937 39.4596 79.3568 39.2651L79.4297 39.1194L79.4735 39.0173ZM79.3421 39.9646C79.4273 39.7986 79.53 39.6423 79.6487 39.4983C80.047 39.1578 80.5136 38.9063 81.0172 38.7605C81.5208 38.6147 82.0498 38.5781 82.5687 38.653L81.8825 39.8189C81.0765 40.1644 80.17 40.1956 79.3421 39.9063V39.9646ZM82.7439 38.7404H82.8753C82.7617 39.0756 82.5718 39.3799 82.3205 39.6294C82.3205 39.6294 82.2037 39.6294 82.1599 39.7315L82.7439 38.7404ZM81.2839 37.3705C81.3768 37.3281 81.475 37.2987 81.5759 37.2831L81.2839 37.3705ZM79.0794 39.8043H78.8458C78.6532 39.5211 78.4331 39.2575 78.1888 39.0173L77.853 38.7259C78.3489 38.75 78.8397 38.8382 79.313 38.9882C79.2149 39.2541 79.1368 39.5269 79.0794 39.8043ZM68.0419 40.8536C68.0954 40.9396 68.1539 41.0223 68.2171 41.1014C68.3475 41.2392 68.4891 41.3659 68.6405 41.4803C68.1879 41.6115 67.7353 41.728 67.2973 41.8738L66.9762 41.7135C67.0492 41.5969 67.1076 41.4657 67.1806 41.3346C67.4491 41.1432 67.738 40.9819 68.0419 40.8536ZM75.7068 40.1832C75.8726 39.9401 76.0144 39.6814 76.1302 39.4108C76.1196 39.5588 76.0777 39.7029 76.0072 39.8335C75.9368 39.9641 75.8393 40.0784 75.7214 40.1687L75.7068 40.1832ZM75.079 40.3873C74.9964 40.2215 74.9233 40.0512 74.86 39.8772C74.9378 39.7444 75.0257 39.6177 75.1228 39.4983C75.3745 39.2531 75.6722 39.06 75.9988 38.9299C75.8193 39.4849 75.503 39.986 75.079 40.3873ZM70.6991 41.0139L70.8889 40.8536C71.2514 40.5396 71.7005 40.3424 72.1773 40.2878C72.6541 40.2331 73.1363 40.3237 73.5606 40.5476C72.6117 40.6642 71.6627 40.8245 70.7137 40.9556L70.6991 41.0139ZM69.6333 40.4601H69.8085C69.8164 40.5084 69.8164 40.5576 69.8085 40.6059L69.6333 40.4601ZM64.1 42.413C64.3109 42.5184 64.5072 42.6507 64.684 42.8065L63.4868 43.2729C63.2382 43.1956 63.0021 43.0827 62.786 42.9377C63.1347 42.6652 63.5238 42.4489 63.9394 42.2964L64.1 42.413ZM68.9763 43.8704H68.7865C68.5705 43.7355 68.3338 43.637 68.0857 43.5789C68.865 43.1855 69.6698 42.8447 70.4947 42.5587C69.952 42.9519 69.444 43.3907 68.9763 43.8704ZM76.466 39.9792C76.7018 39.8118 76.8974 39.5942 77.0388 39.3422C77.1801 39.0902 77.2638 38.81 77.2836 38.5218H77.5172L77.6632 38.6239C78.0458 39.0306 78.3085 39.5349 78.4224 40.0812C77.634 40.0812 76.831 40.0812 76.0426 40.1687L76.466 39.9792ZM80.6415 41.9466L80.3787 42.3839L80.0867 42.0632C80.2691 42.0246 80.4551 42.0051 80.6415 42.0049V41.9466ZM80.8021 41.9466C80.9621 41.9447 81.1209 41.9744 81.2693 42.0341C81.0478 42.1515 80.8185 42.2538 80.5831 42.3401L80.8021 41.9466ZM81.5905 41.6115C81.4986 41.4904 81.3906 41.3826 81.2693 41.2908L82.4081 41.4511L81.7657 41.8592L81.5905 41.6115ZM84.8171 39.9355C84.781 39.7723 84.781 39.6032 84.8171 39.44C84.8757 39.6508 84.9539 39.8558 85.0507 40.0521H84.8171C84.8171 40.0521 84.8171 40.0229 84.8171 39.9938V39.9355ZM87.4888 37.7932L87.1238 37.8806C87.1169 37.8274 87.1169 37.7735 87.1238 37.7203H87.445C87.445 37.7203 87.4742 37.8223 87.4888 37.8515V37.7932ZM87.6056 37.764H87.6786H87.6056ZM87.4304 38.3907C87.3789 38.2652 87.3101 38.1474 87.226 38.0409H87.4888C87.506 38.1569 87.506 38.2747 87.4888 38.3907H87.4304ZM93.2703 46.9163L93.5915 47.1349C93.8195 47.3476 94.0636 47.5425 94.3215 47.7178C94.4091 47.7178 94.4675 47.8635 94.5405 47.9364C94.4051 48.1729 94.2927 48.4218 94.2047 48.6797H93.8981C93.5513 48.1554 93.359 47.5443 93.3433 46.9163H93.2703ZM85.7952 38.7259L85.912 38.6239C85.912 38.7259 85.912 38.7987 85.912 38.9008L85.7952 38.7259ZM85.9412 38.4198L85.7368 38.5947C85.7014 38.5245 85.6721 38.4514 85.6492 38.3761L85.9558 38.2012C85.9437 38.2734 85.9389 38.3467 85.9412 38.4198ZM98.1612 43.8704C98.1782 44.0338 98.2125 44.195 98.2634 44.3513C98.0024 44.2272 97.7613 44.0651 97.548 43.8704C97.3422 43.6115 97.1124 43.3724 96.8619 43.1563C97.327 43.3311 97.7645 43.5715 98.1612 43.8704ZM95.6209 43.2437C95.9524 43.652 96.2184 44.1092 96.4093 44.5991C95.9567 44.3659 95.4895 44.1473 94.9493 43.9432L95.2997 43.3457L95.6209 43.2437ZM100.001 46.3333L99.811 46.4936L99.2854 46.1439V45.8524C99.5059 45.9592 99.7161 46.086 99.9132 46.2313C99.9186 46.2469 99.9283 46.2607 99.9413 46.271C99.9542 46.2813 99.9698 46.2877 99.9862 46.2896L100.001 46.3333ZM99.1686 46.1001L98.4824 45.6921C98.7316 45.7141 98.977 45.768 99.2124 45.8524L99.1686 46.1001ZM98.9204 45.0363L99.1248 44.7302L99.3438 45.0071V45.2403C99.1801 45.1938 99.0299 45.1089 98.9058 44.9925L98.9204 45.0363ZM98.9204 45.3423H98.6284L98.7598 45.1674L98.9204 45.3423ZM94.9055 43.8704L94.7011 43.7684L95.1245 43.4769L94.9055 43.8704ZM93.4455 43.2729C93.6538 43.157 93.8741 43.0642 94.1025 42.996C94.0003 43.1271 93.9127 43.2729 93.8105 43.4186L93.4455 43.2729ZM100.745 47.0037L100.337 46.7851C100.33 46.7465 100.33 46.7071 100.337 46.6685C100.439 46.7997 100.556 46.9308 100.643 47.062L100.745 47.0037ZM99.4898 45.3277V45.1383C99.5287 45.1833 99.5629 45.2321 99.592 45.284L99.4898 45.3277ZM98.8036 44.9342C98.7009 44.8462 98.6123 44.743 98.5408 44.6282H98.9496L98.8036 44.9342ZM98.6868 45.08L98.4824 45.3277L98.0444 45.4006L97.0954 44.8905L97.4458 44.1473C97.7254 44.3405 98.0367 44.4836 98.3656 44.5699C98.4459 44.7421 98.5545 44.8998 98.6868 45.0363V45.08ZM95.4895 48.7088C95.4964 48.685 95.4964 48.6598 95.4895 48.636C95.5619 48.7149 95.6301 48.7976 95.6939 48.8837L95.3581 48.9711C95.408 48.8869 95.452 48.7993 95.4895 48.7088ZM101.811 45.5755C101.748 45.843 101.713 46.1167 101.709 46.3916C101.501 46.149 101.254 45.9423 100.979 45.7795C101.26 45.7152 101.524 45.5909 101.753 45.4152L101.811 45.5755ZM101.081 44.2201C100.912 44.5789 100.65 44.8859 100.322 45.1091C100.291 44.9074 100.247 44.7079 100.191 44.5116C100.474 44.4287 100.745 44.306 100.994 44.1473C100.994 44.1473 101.067 44.191 101.081 44.2201ZM98.4532 44.3659C98.3872 44.2265 98.3382 44.0797 98.3072 43.9287C98.5252 44.0977 98.7301 44.2829 98.9204 44.4825C98.7612 44.4591 98.6047 44.42 98.4532 44.3659ZM92.7301 42.9085C92.9318 42.826 93.127 42.7286 93.3141 42.617L92.8615 43.0251L92.7301 42.9085ZM95.2997 49.1315L95.8107 48.9857C95.6579 49.111 95.4914 49.2185 95.3143 49.3063C95.3034 49.2536 95.2985 49.1998 95.2997 49.146V49.1315ZM96.4677 49.729C96.232 49.6733 96.0022 49.5952 95.7815 49.4958L96.0005 49.1897L96.4677 49.729ZM100.132 44.3659C100.027 44.0693 99.8797 43.7895 99.6942 43.5352V43.2729C100.115 43.4598 100.504 43.7105 100.848 44.0161C100.625 44.1663 100.385 44.2887 100.132 44.3804V44.3659ZM99.5774 43.3603L99.4168 43.1417H99.6066L99.5774 43.3603ZM93.7375 42.209L93.9127 42.0632L93.7375 42.209ZM92.8031 42.413C92.7983 42.3451 92.7983 42.2769 92.8031 42.209C92.836 42.1237 92.875 42.0409 92.9199 41.9612C93.1189 41.9398 93.3196 41.9398 93.5185 41.9612C93.2986 42.1393 93.0585 42.291 92.8031 42.413ZM92.6863 42.413L92.4965 42.4859L91.9855 42.6753L91.5767 42.5296C91.905 42.2248 92.327 42.0399 92.7739 42.0049C92.7363 42.1685 92.707 42.3339 92.6863 42.5004V42.413ZM90.7154 41.3783L90.4088 41.1888C90.5821 41.0964 90.7628 41.0184 90.949 40.9556C91.4035 40.7392 91.9065 40.6438 92.4089 40.6787C91.9145 41.0708 91.3342 41.3405 90.7154 41.4657V41.3783ZM87.7954 40.5476C87.5494 40.0888 87.3676 39.5984 87.2552 39.0902C87.3499 38.9541 87.4283 38.8073 87.4888 38.653C87.804 39.2629 87.9213 39.9556 87.8246 40.635L87.7954 40.5476ZM87.2114 38.9591C87.163 38.689 87.1289 38.4166 87.1092 38.1429C87.219 38.2556 87.3124 38.3832 87.3866 38.5218C87.3646 38.703 87.3153 38.8799 87.2406 39.0465L87.2114 38.9591ZM85.985 37.866C85.8412 37.9466 85.7044 38.0393 85.5762 38.1429C85.4528 37.8392 85.3694 37.5208 85.328 37.1956C85.6069 37.2278 85.8784 37.3066 86.131 37.4288C86.0708 37.5983 86.0315 37.7745 86.0142 37.9535L85.985 37.866ZM85.4448 40.6059L85.5178 40.7079H85.3572L85.4448 40.6059ZM89.6642 44.0161C90.0292 44.2201 90.3796 44.4387 90.73 44.6573V44.7448C90.4707 45.0155 90.1503 45.2204 89.7956 45.3423C89.6794 45.3887 89.5557 45.4134 89.4306 45.4152C89.3094 44.9933 89.2455 44.557 89.2408 44.1181L89.6642 44.0161ZM91.5913 45.7066C92.0541 46.0664 92.542 46.3927 93.0513 46.6831C93.0663 47.4351 93.3052 48.1656 93.7375 48.7817C93.2816 48.8252 92.8215 48.7857 92.3797 48.6651C91.9984 48.2853 91.7246 47.8115 91.5861 47.2919C91.4477 46.7723 91.4495 46.2254 91.5913 45.7066ZM94.0003 49.1752C94.0321 49.2166 94.0718 49.2512 94.1171 49.2772C94.1171 49.3646 94.1171 49.4521 94.1171 49.5249C93.8389 49.4983 93.5673 49.4243 93.3141 49.3063C93.5451 49.2756 93.7743 49.2318 94.0003 49.1752ZM95.3289 49.4521C95.5272 49.3582 95.7135 49.2407 95.8837 49.1023L95.6501 49.4375L95.3873 49.831C95.3599 49.706 95.3404 49.5795 95.3289 49.4521ZM107.666 50.7491H107.841C108.111 50.6745 108.375 50.577 108.629 50.4577C108.65 50.5782 108.65 50.7015 108.629 50.822C108.532 51.058 108.374 51.2644 108.172 51.4204C107.969 51.5764 107.729 51.6766 107.476 51.711C107.499 51.3838 107.563 51.0607 107.666 50.7491ZM108.293 50.1808L107.899 50.2682C108.03 50.0426 108.193 49.8366 108.381 49.6561C108.475 49.7778 108.544 49.9163 108.585 50.0642L108.293 50.1808ZM107.315 50.3556C106.81 50.4123 106.299 50.3553 105.819 50.1889C105.339 50.0224 104.902 49.7507 104.541 49.3938C104.466 49.1207 104.408 48.8433 104.366 48.5631L104.176 48.942L103.87 48.5631C103.322 47.7149 103.023 46.7303 103.008 45.7212L104.279 45.3277C104.234 45.549 104.234 45.7769 104.279 45.9981C104.02 46.1645 103.746 46.306 103.461 46.4208V46.5082L104.833 46.9017C105.753 47.8927 107.505 48.6068 108.25 49.5104C107.911 49.7605 107.598 50.0436 107.315 50.3556ZM105.125 45.4006C105.073 45.3229 105.029 45.2398 104.994 45.1529L105.52 45.0217L105.125 45.4006ZM103.811 41.5677L103.987 41.32C103.942 41.4078 103.888 41.4908 103.826 41.5677H103.811ZM101.329 43.5935C100.888 42.7453 100.165 42.0759 99.2854 41.6989C99.6092 41.4369 99.9679 41.2211 100.351 41.0577C100.708 41.3692 100.984 41.763 101.154 42.2048C101.325 42.6466 101.385 43.1233 101.329 43.5935ZM98.57 41.524L98.0882 41.4074C97.5423 41.3384 96.9884 41.368 96.4531 41.4949C96.7432 41.0341 97.1813 40.6853 97.6957 40.5053C98.2102 40.3253 98.7706 40.3248 99.2854 40.5039C99.0145 40.8201 98.7749 41.1617 98.57 41.524ZM94.3799 41.9175H94.1901L94.3945 41.6552C94.4559 41.7167 94.5098 41.7852 94.5551 41.8592L94.3799 41.9175ZM94.2047 41.422C94.0847 41.5686 93.9529 41.7051 93.8105 41.8301C93.5583 41.8009 93.3035 41.8009 93.0513 41.8301C93.2119 41.5282 93.4244 41.2569 93.6791 41.0285C93.8662 41.1431 94.0421 41.2748 94.2047 41.422ZM94.4675 40.533L94.7449 40.4456C94.7449 40.4456 94.7449 40.5622 94.7449 40.6059L94.4675 40.533ZM93.0075 41.422L92.8323 41.8446C92.2968 41.9044 91.79 42.1169 91.3723 42.4567C91.3249 42.293 91.2562 42.1363 91.1679 41.9904C91.6204 41.7548 92.0463 41.4715 92.4381 41.1451C92.5987 41.0139 92.7301 40.8536 92.8761 40.7079C93.0742 40.77 93.2651 40.8531 93.4455 40.9556C93.3155 41.1044 93.1936 41.26 93.0805 41.422H93.0075ZM87.1676 37.2394C87.1605 37.1959 87.1605 37.1516 87.1676 37.1082V37.2394ZM86.1456 37.3705C85.8709 37.2499 85.5812 37.1666 85.2842 37.1228C85.2842 37.1228 85.2842 37.0499 85.2842 37.0062C85.6516 36.8471 86.0543 36.7868 86.4522 36.8313C86.3357 37.0025 86.2331 37.1828 86.1456 37.3705ZM84.6857 37.2539C84.5314 37.9106 84.5314 38.5939 84.6857 39.2505C84.5613 39.5031 84.4776 39.7736 84.4375 40.0521C83.9697 39.98 83.5133 39.8478 83.0797 39.6586H83.0067L83.5761 40.533C82.9483 40.4456 82.3205 40.3727 81.6927 40.329L81.8241 40.1104C81.9448 40.0348 82.0574 39.9469 82.1599 39.848C82.5083 39.5158 82.782 39.1134 82.9629 38.6676C83.2912 38.7125 83.614 38.7907 83.9265 38.9008L83.2695 37.8806L84.6857 37.2685V37.2539ZM79.2546 38.0409L79.9115 37.6183L79.9991 37.7349C79.8474 37.9251 79.7153 38.1302 79.6049 38.347C79.5329 38.4888 79.4695 38.6348 79.4151 38.7842L78.8458 37.8806L79.2253 37.7057C79.2253 37.7057 79.2253 37.8515 79.2253 37.9098L79.2546 38.0409ZM70.4801 40.9556H70.2757C70.2172 40.8924 70.1538 40.8339 70.0859 40.7808C70.1905 40.5293 70.2593 40.2644 70.2903 39.9938C70.3277 39.7572 70.3277 39.5162 70.2903 39.2797C70.8309 39.3869 71.3341 39.633 71.7503 39.9938L70.4801 40.9556ZM68.4799 39.1194C68.4799 39.1194 68.4799 39.1194 68.4799 39.0028H68.6259L68.4799 39.1194ZM67.02 40.5767L66.9178 40.7225C66.747 40.9351 66.5909 41.1591 66.4506 41.3929C65.9774 40.9603 65.5996 40.4342 65.341 39.848L66.5966 38.7842C66.8916 39.3269 67.0565 39.9305 67.0784 40.5476L67.02 40.5767ZM64.8008 40.9556L64.4942 40.7225C63.9666 40.9764 63.4755 41.2999 63.0342 41.6843L64.9176 40.1104L64.8008 40.9556ZM62.9612 41.8592L63.1072 41.7426C63.0424 41.7853 62.9916 41.8461 62.9612 41.9175V41.8592ZM62.8298 42.0049C62.6626 42.1949 62.5066 42.3944 62.3626 42.6025C62.302 42.567 62.2435 42.5281 62.1874 42.4859L62.786 42.0632L62.8298 42.0049ZM61.7056 42.413C61.9372 42.381 62.1632 42.3172 62.3772 42.2235L62.0706 42.413L61.326 43.1271C61.325 42.949 61.3813 42.7753 61.4866 42.6316C61.5477 42.5478 61.6216 42.474 61.7056 42.413ZM61.2677 43.4623C61.4298 43.6016 61.6059 43.7237 61.7932 43.8266C61.753 43.9065 61.7188 43.9894 61.691 44.0744H61.5888C61.4564 43.8765 61.3668 43.6531 61.326 43.4186L61.2677 43.4623ZM58.8587 45.5609C58.3915 45.8378 57.9243 46.1293 57.3987 46.4353C57.4613 46.0519 57.3836 45.6587 57.1797 45.3277C57.7558 45.2377 58.3456 45.3031 58.8879 45.5172L58.8587 45.5609ZM60.4647 49.6998C60.5891 49.7972 60.7209 49.8849 60.8589 49.9622C61.4661 50.3042 62.1792 50.4082 62.859 50.2536C62.4703 50.9641 61.8574 51.5264 61.1154 51.8532C60.3735 52.18 59.5442 52.253 58.7565 52.0608C59.2758 51.2388 59.8463 50.4503 60.4647 49.6998ZM63.6912 48.6797C63.7282 48.8252 63.7343 48.9769 63.7092 49.125C63.684 49.273 63.6282 49.4142 63.5452 49.5395C63.6269 49.2644 63.6759 48.9807 63.6912 48.6942V48.6797ZM63.7934 46.3042L64.1438 46.0127L63.7934 46.3042ZM69.6333 45.1383C69.7602 45.5166 69.7602 45.9259 69.6333 46.3042L69.1807 46.0856C69.0347 45.9981 68.9033 45.8815 68.7573 45.7795C69.0893 45.6029 69.4024 45.3929 69.6917 45.1529L69.6333 45.1383ZM69.7793 45.0071C70.2757 44.5408 70.7575 44.0161 71.2393 43.5498C71.4187 44.011 71.6809 44.4358 72.0131 44.8031C72.4049 45.2323 72.9114 45.5407 73.473 45.6921C73.0511 46.0317 72.5641 46.2818 72.042 46.4272C71.5198 46.5725 70.9735 46.61 70.4363 46.5373C70.2325 46.4825 70.0326 46.4143 69.8377 46.3333C69.9668 45.9056 69.9668 45.4494 69.8377 45.0217L69.7793 45.0071ZM73.692 45.7795H73.7796L73.5898 45.9398L73.692 45.7795ZM73.7942 45.6192C73.9747 45.3535 74.0979 45.0532 74.156 44.7374C74.2141 44.4216 74.2058 44.0972 74.1317 43.7848C74.0576 43.4724 73.9192 43.1788 73.7254 42.9226C73.5316 42.6663 73.2866 42.4531 73.0059 42.2964H72.9183C73.3095 42.1473 73.6859 41.9619 74.0424 41.7426C74.0704 42.2436 74.2657 42.7208 74.5972 43.098C74.6774 43.1881 74.7653 43.271 74.86 43.3457C74.9404 43.519 75.004 43.6996 75.0498 43.8849C74.8882 44.5636 74.5333 45.1811 74.0278 45.6629L73.7942 45.6192ZM75.0936 44.5845C75.083 44.7325 75.0411 44.8765 74.9706 45.0072C74.9002 45.1378 74.8028 45.252 74.6848 45.3423C74.8642 45.1102 75.0207 44.8613 75.152 44.5991L75.0936 44.5845ZM81.5905 43.3749L81.9409 43.2437C81.9482 43.3407 81.9482 43.4382 81.9409 43.5352L81.5905 43.3749ZM82.1307 43.1563C82.9778 42.7076 83.8619 42.3321 84.7733 42.0341L86.2332 42.4859C86.3513 42.6763 86.426 42.8902 86.4522 43.1125C85.9966 43.497 85.455 43.7666 84.8731 43.8985C84.2913 44.0304 83.6862 44.0207 83.1089 43.8704C82.7738 43.7997 82.4462 43.6972 82.1307 43.5643C82.1657 43.4359 82.1854 43.3038 82.1891 43.1708L82.1307 43.1563ZM86.2916 44.0744C86.1694 44.331 86.0011 44.5631 85.7952 44.7594C85.3306 45.159 84.7286 45.3627 84.1163 45.3277C84.9634 45.1345 85.7381 44.7049 86.35 44.089L86.2916 44.0744ZM99.4314 54.2759C99.5774 54.5383 99.7088 54.8152 99.8402 55.0775C99.449 55.1893 99.0342 55.1893 98.643 55.0775C98.1913 54.9387 97.8001 54.6509 97.5334 54.2614C98.1842 54.3811 98.8504 54.391 99.5044 54.2905L99.4314 54.2759ZM111.228 58.0651C111.518 58.0142 111.814 58.0142 112.104 58.0651C112.67 58.1394 113.199 58.3843 113.622 58.7671C114.045 59.15 114.34 59.6524 114.469 60.2074H114.396C113.993 60.2914 113.575 60.2826 113.175 60.1816C112.776 60.0806 112.404 59.8901 112.089 59.6245C111.9 59.129 111.608 58.6043 111.301 58.0797L111.228 58.0651ZM114.221 55.8936C112.352 55.5147 109.666 56.4474 109.374 54.8735C109.213 54.1302 109.899 53.2121 111.082 52.7894C111.792 52.6393 112.529 52.6715 113.224 52.8831C113.918 53.0946 114.548 53.4786 115.053 53.999C115.041 54.7063 114.771 55.3849 114.294 55.9082L114.221 55.8936ZM114.542 52.2356C113.531 51.994 112.471 52.0497 111.491 52.3959C110.904 52.5445 110.368 52.8494 109.942 53.2781C109.515 53.7067 109.213 54.243 109.067 54.8297C108.512 54.1011 107.928 53.3724 107.315 52.7166C107.315 52.6146 107.315 52.5125 107.315 52.4105L111.929 51.2155C112.429 51.0786 112.959 51.1052 113.443 51.2914C113.926 51.4777 114.337 51.8137 114.615 52.2502L114.542 52.2356ZM112.965 50.7783L107.286 52.2356C107.278 52.09 107.278 51.9441 107.286 51.7984C107.692 51.7255 108.07 51.5409 108.377 51.2655C108.684 50.99 108.908 50.6345 109.023 50.239C109.032 50.1908 109.032 50.1415 109.023 50.0933C109.521 49.791 109.941 49.3768 110.25 48.8837C110.854 48.8893 111.443 49.0757 111.94 49.4186C112.437 49.7615 112.819 50.2452 113.038 50.8074L112.965 50.7783ZM110.615 46.8288C110.683 47.4617 110.533 48.0987 110.191 48.636L109.71 48.7525C109.52 48.7525 109.33 48.8983 109.155 48.9711C108.775 47.6304 106.921 46.9017 105.768 46.0564C106.023 45.6488 106.22 45.2072 106.352 44.7448L107.476 44.4533C108.018 44.3254 108.586 44.3765 109.096 44.5991C109.684 45.2903 110.091 46.1166 110.279 47.0037H110.367L110.556 46.5956C110.556 46.5956 110.673 46.7851 110.688 46.858L110.615 46.8288ZM108.965 44.4387C108.742 44.3678 108.512 44.3237 108.279 44.3076L108.658 44.2201L108.965 44.4387ZM108.337 43.5789H108.162C107.651 43.4302 107.116 43.3759 106.585 43.4186C106.601 43.0264 106.561 42.634 106.468 42.2527C107.239 42.4396 107.907 42.9143 108.337 43.5789ZM105.125 40.7662C105.381 40.8504 105.611 40.9973 105.794 41.1934C105.978 41.3895 106.109 41.6284 106.176 41.8884C105.881 41.918 105.588 41.9716 105.301 42.0487C104.901 42.1829 104.519 42.3639 104.162 42.5879C104.473 42.0342 104.648 41.4149 104.673 40.7808C104.821 40.7465 104.975 40.7415 105.125 40.7662ZM104.176 38.755C104.358 39.2179 104.419 39.7196 104.352 40.2124C103.286 40.0812 102.658 40.8682 102.147 41.8592L101.227 36.9042C101.851 36.8938 102.465 37.0628 102.996 37.3909C103.527 37.7191 103.951 38.1926 104.22 38.755H104.176ZM98.1758 37.5308C99.0689 37.0436 100.079 36.8116 101.096 36.8605L101.972 41.5386C102.001 41.7611 102.001 41.9865 101.972 42.209C101.826 42.515 101.694 42.8211 101.563 43.1417C101.491 42.2938 101.087 41.5084 100.439 40.9556L101.008 40.7516V40.6933L99.4314 40.2415C99.3813 40.2801 99.3413 40.33 99.3146 40.3873C98.875 40.2404 98.4035 40.2157 97.9509 40.3158C97.4982 40.4159 97.0814 40.6371 96.7451 40.9556L96.9495 40.6059L97.621 39.4983C97.2741 39.3501 96.9031 39.2661 96.5261 39.2505C96.9092 38.5238 97.4982 37.9257 98.2196 37.5308H98.1758ZM95.6063 40.2998C95.6155 40.6715 95.6546 41.0419 95.7231 41.4074C95.4936 41.1244 95.217 40.8828 94.9055 40.6933L94.9931 40.3727C95.2093 40.3278 95.4293 40.3034 95.6501 40.2998H95.6063ZM94.9055 39.2651C94.9127 39.367 94.9127 39.4693 94.9055 39.5711C94.5214 39.7785 94.1717 40.044 93.8689 40.3581C93.6456 40.3367 93.4207 40.3367 93.1973 40.3581C93.5146 39.9501 93.739 39.478 93.855 38.9747C93.971 38.4713 93.9757 37.9488 93.8689 37.4434C94.4287 37.9014 94.7981 38.5506 94.9055 39.2651ZM93.5915 36.9916C93.2527 36.8165 92.878 36.7218 92.4965 36.7147L92.8615 36.5836L93.3141 36.467C93.4128 36.6338 93.4959 36.8095 93.5623 36.9916H93.5915ZM91.5475 35.0096C91.0323 34.8844 90.4906 34.9252 90 35.1262L90.3212 34.8639L90.6424 34.6015C90.9678 34.6775 91.2753 34.8161 91.5475 35.0096ZM85.8974 35.1262C86.3367 34.5819 86.9572 34.2134 87.646 34.0876C88.3347 33.9619 89.0458 34.0874 89.6496 34.4412H89.5474C88.5005 34.7808 87.5733 35.413 86.8756 36.2629C86.5411 35.9072 86.0793 35.6977 85.5908 35.68C85.665 35.4813 85.7683 35.2946 85.8974 35.1262ZM79.5027 36.0443C78.6268 36.4232 77.7654 36.9625 77.0354 37.2248C76.6996 36.3504 76.1302 35.476 75.8236 34.7036C75.9067 34.5753 75.9994 34.4535 76.101 34.3392C76.7554 33.7489 77.6139 33.4354 78.4954 33.4648C78.4954 33.4648 78.5976 33.4648 78.6414 33.5814C79.2405 34.2523 79.5501 35.1322 79.5027 36.0298V36.0443ZM76.0134 32.9256C76.2394 32.8104 76.4896 32.7504 76.7434 32.7504C76.9972 32.7504 77.2473 32.8104 77.4734 32.9256C77.0146 33.1717 76.5962 33.4862 76.2324 33.8583C76.0272 34.059 75.8415 34.2786 75.6776 34.5141C75.5295 34.2541 75.4819 33.9489 75.5438 33.6563C75.6056 33.3636 75.7727 33.1037 76.0134 32.9256ZM74.6994 35.4322C74.8071 35.7457 74.9339 36.0523 75.079 36.3504C75.0577 36.8714 75.2119 37.3845 75.517 37.8077C74.9825 37.8132 74.4664 38.0038 74.057 38.347C73.8264 38.5476 73.6535 38.8059 73.556 39.0953C73.4585 39.3847 73.4399 39.6948 73.5022 39.9938L73.3124 39.848C72.9668 39.295 72.7836 38.6563 72.7836 38.0045C72.7836 37.3527 72.9668 36.7139 73.3124 36.1609V36.088L71.9255 36.977C72.0327 37.7642 72.2958 38.5221 72.6993 39.2068C72.3331 38.8926 71.8962 38.6715 71.4259 38.5624C70.9555 38.4533 70.4658 38.4594 69.9983 38.5801C69.8091 38.3359 69.5765 38.1284 69.3121 37.968L71.9547 35.7383C72.3255 35.4125 72.7878 35.2084 73.2788 35.1536C73.7697 35.0989 74.2657 35.1961 74.6994 35.4322ZM72.6555 34.8056L70.8305 36.3649L71.1517 34.8201C70.767 34.5352 70.3505 34.2956 69.9107 34.106C70.3908 33.9937 70.891 33.9986 71.3689 34.1204C71.8467 34.2422 72.288 34.4772 72.6555 34.8056ZM67.166 33.8874C67.7464 33.8976 68.3106 34.0803 68.7865 34.4121C68.0255 35.1479 67.476 36.0739 67.1952 37.0936C67.0251 36.7967 66.8244 36.5183 66.5966 36.2629C66.163 35.7708 65.6241 35.3824 65.0198 35.1262C65.2165 34.7324 65.5248 34.4051 65.9064 34.1849C66.288 33.9646 66.726 33.8612 67.166 33.8874ZM64.392 36.3504C64.4796 37.3268 65.341 37.8077 66.3776 38.2449L66.5966 38.6093L65.341 39.6732C65.3023 39.6177 65.2681 39.5592 65.2388 39.4983H65.1512L65.0344 40.0084L62.9612 41.6843C62.8553 41.7703 62.743 41.8482 62.6254 41.9175C62.2043 41.9382 61.7941 42.058 61.4282 42.2673C60.961 42.2665 60.5018 42.1454 60.0951 41.9156C59.6885 41.6858 59.3481 41.3552 59.1069 40.9556C58.8129 40.4945 58.6606 39.9574 58.6689 39.4108C59.3136 39.613 59.9077 39.9503 60.4113 40.4002C60.9148 40.8501 61.3163 41.4022 61.5888 42.0195H61.6764L62.0414 40.2707C61.0843 39.518 59.902 39.1075 58.6835 39.1048C58.8093 38.2563 59.2275 37.4781 59.8661 36.9042C60.4482 36.3173 61.2115 35.9435 62.0327 35.843C62.8539 35.7425 63.6851 35.9213 64.392 36.3504ZM58.1433 39.2651H58.4499C58.4637 39.8754 58.6566 40.4683 59.0047 40.9702C59.2345 41.3683 59.5553 41.7065 59.941 41.9572C60.3266 42.2079 60.7662 42.3641 61.2239 42.413C60.9706 42.6027 60.7572 42.8404 60.5961 43.1125C60.5128 43.2471 60.4535 43.395 60.4209 43.5498C59.317 42.9227 58.1402 42.4332 56.9169 42.0924L57.0629 41.422C56.6872 41.1314 56.2749 40.8913 55.8365 40.7079C55.9533 39.9646 56.9461 39.3234 58.1433 39.3234V39.2651ZM52.026 41.8301C52.1146 41.3864 52.3733 40.9949 52.7469 40.739C53.1206 40.4831 53.5796 40.383 54.0262 40.4601C54.549 40.4954 55.0415 40.718 55.4131 41.0868C55.3818 41.2166 55.3574 41.3479 55.3401 41.4803C55.238 43.1563 57.1943 43.6226 58.8003 44.2056C58.0461 44.1271 57.2889 44.3238 56.6687 44.7594C55.019 43.6809 51.8362 43.5643 52.026 41.8301ZM54.946 47.2223C55.1246 46.7203 55.4377 46.2767 55.8511 45.9398L55.7343 46.4645C56.0133 46.6839 56.3171 46.8698 56.6395 47.0183C56.0263 47.4555 55.4131 47.9218 54.8292 48.4028C54.7714 48.0076 54.8013 47.6046 54.9168 47.2223H54.946ZM53.6904 46.96C53.9844 47.4212 54.1367 47.9582 54.1284 48.5048C53.4649 48.3155 52.8508 47.984 52.3288 47.5334C51.8069 47.0829 51.3896 46.5241 51.1062 45.8961L50.7412 47.6304C51.6948 48.3913 52.8784 48.8074 54.0992 48.8108C54.0992 48.8108 54.0992 48.9566 54.0992 49.0294C52.9883 49.9606 51.9397 50.9635 50.9602 52.0316C50.6552 52.0753 50.3455 52.0753 50.0404 52.0316L50.1426 51.5361C49.8198 51.2961 49.4723 51.0909 49.1061 50.924C48.4056 50.5288 47.6295 50.2855 46.8285 50.2099C46.5796 49.9003 46.3597 49.5686 46.1715 49.2189L48.1863 47.5575C48.8785 47.9791 49.4751 48.5399 49.9382 49.2043H50.0258L50.1426 47.4263C49.7645 47.2254 49.3686 47.0595 48.9601 46.9308L49.8068 46.2167C50.0958 45.9776 50.4343 45.8053 50.798 45.7124C51.1616 45.6194 51.5414 45.6081 51.91 45.6792C52.2785 45.7502 52.6267 45.902 52.9295 46.1234C53.2323 46.3449 53.4822 46.6306 53.6612 46.96H53.6904ZM42.7698 61.3587C43.0022 61.0634 43.2666 60.7946 43.5581 60.5572C44.0658 60.5815 44.5629 60.7105 45.0181 60.9361C44.6385 61.7814 44.2735 62.6558 43.9377 63.5594C43.2661 63.7706 42.5384 63.7131 41.9084 63.399C42.0154 62.6564 42.312 61.9538 42.7698 61.3587ZM44.2297 56.1414H44.1275L43.9377 57.0158L43.8063 54.0719C44.6677 55.0629 46.7263 55.369 47.8943 56.0248C47.3979 56.768 46.9161 57.555 46.4343 58.3566L45.8795 58.444C45.0913 57.8939 44.5064 57.1001 44.2151 56.1851L44.2297 56.1414ZM44.9743 58.444C44.6587 58.4735 44.341 58.4735 44.0253 58.444V57.9631C44.3315 58.1427 44.6484 58.3033 44.9743 58.444ZM45.7189 47.0911L46.1277 46.9746C46.8053 46.9072 47.4865 47.0606 48.0695 47.4118L46.1131 49.1315C45.8071 48.5176 45.6711 47.8334 45.7189 47.1494V47.0911ZM49.6462 53.3432C49.6544 53.295 49.6544 53.2457 49.6462 53.1975C49.6462 53.1975 49.6462 53.3141 49.6462 53.3432ZM46.0547 51.5215C46.0547 51.5215 46.0547 51.5944 46.1423 51.6235C46.5152 52.0795 46.9851 52.4469 47.5179 52.699C48.0508 52.9511 48.6332 53.0815 49.2229 53.0809C49.3131 53.3171 49.3815 53.561 49.4272 53.8096C49.1937 54.1011 48.9747 54.4071 48.7557 54.6986L48.4491 54.8152C47.5428 54.2632 46.5584 53.8506 45.5291 53.591C45.3243 53.3413 45.1434 53.0729 44.9889 52.7894H44.8429V53.3141C44.4688 53.2004 44.151 52.9508 43.9523 52.6146C44.0735 52.32 44.252 52.0523 44.4775 51.8272C44.7031 51.602 44.9712 51.4238 45.2663 51.3029L46.0547 51.5215ZM45.5875 59.9014V59.9742V59.9014ZM43.4413 65.0167C43.2808 65.4976 43.1202 65.9786 42.9742 66.4741C42.8866 66.3721 42.799 66.2846 42.7114 66.168C42.7113 65.7253 42.878 65.2987 43.1786 64.973L43.4413 65.0167ZM49.9674 53.1538C49.9746 53.1152 49.9746 53.0757 49.9674 53.0372H50.0842L49.9674 53.1538ZM46.2883 45.6338C46.5399 45.3175 46.8546 45.0568 47.2124 44.8683C47.5703 44.6798 47.9635 44.5677 48.3671 44.5389C48.7706 44.5101 49.1758 44.5654 49.5569 44.7012C49.9379 44.837 50.2866 45.0503 50.5806 45.3277L48.7849 46.8725C48.074 46.6667 47.3269 46.6169 46.5949 46.7268C46.307 46.769 46.0236 46.8373 45.7481 46.9308C45.806 46.4573 45.9928 46.0087 46.2883 45.6338ZM44.0399 48.7525C44.0923 48.4169 44.2376 48.1026 44.4595 47.8451C44.6814 47.5876 44.9709 47.3971 45.2955 47.2952C44.9821 48.1459 44.9413 49.0727 45.1787 49.9476C44.5071 49.6998 44.0399 49.3938 44.0399 48.7525ZM44.6531 51.0552L45.0473 51.2301C44.5577 51.4736 44.1588 51.8667 43.9085 52.3522C43.894 52.2507 43.894 52.1477 43.9085 52.0462C43.9521 51.8365 44.0414 51.6391 44.1701 51.4678C44.2988 51.2965 44.4637 51.1556 44.6531 51.0552ZM41.1784 56.1705C41.0835 55.7913 41.066 55.3969 41.1269 55.0108C41.1878 54.6247 41.3259 54.2548 41.5329 53.923C41.7399 53.5913 42.0117 53.3045 42.332 53.0797C42.6524 52.8549 43.0147 52.6967 43.3975 52.6146C43.3975 52.702 43.3975 52.7749 43.3975 52.8477C43.3633 53.1948 43.4454 53.5434 43.6311 53.8387L43.8063 57.5987V57.8028V58.3566C43.2088 58.2699 42.647 58.0197 42.1832 57.6339C41.7194 57.248 41.3716 56.7415 41.1784 56.1705ZM45.2663 59.9014L45.3977 60.0908C45.0239 60.0547 44.6474 60.0547 44.2735 60.0908C44.4219 60.0109 44.5786 59.9474 44.7407 59.9014C44.9157 59.9139 45.0913 59.9139 45.2663 59.9014ZM41.9084 64.3609C42.1985 64.684 42.5895 64.8997 43.018 64.973C42.7867 65.2568 42.6266 65.5915 42.5508 65.9494C42.2295 65.4696 42.0108 64.9289 41.9084 64.3609ZM68.8157 107.003C68.9425 106.659 69.0354 106.302 69.0931 105.939L70.5531 106.26C70.442 106.423 70.3094 106.57 70.1589 106.697L68.8157 107.003ZM70.7721 106.304L71.3707 106.42L70.6991 106.566C70.7283 106.537 70.7429 106.391 70.7721 106.304ZM68.0565 107.193L67.3995 107.426C67.173 107.321 66.9954 107.133 66.9032 106.901C67.0829 106.438 67.148 105.938 67.093 105.444C67.093 105.444 67.093 105.444 67.093 105.327L67.6769 105.502L68.4361 105.706C68.3839 106.218 68.256 106.719 68.0565 107.193ZM61.326 105.386H61.4136C61.9209 104.922 62.2555 104.3 62.3626 103.622C62.6838 103.768 63.0196 103.914 63.37 104.045C63.1337 104.608 62.9385 105.188 62.786 105.779C62.6163 105.926 62.4302 106.054 62.2312 106.158H62.5962C62.5497 106.289 62.4763 106.408 62.3807 106.508C62.2852 106.609 62.1696 106.688 62.0414 106.741C61.6504 106.566 61.3419 106.248 61.1801 105.852C61.1947 105.765 61.2385 105.575 61.326 105.386ZM64.246 104.424C64.8154 104.642 65.3702 104.846 65.9542 105.036C66.0016 105.189 66.0406 105.345 66.071 105.502C65.6943 106.038 65.1578 106.441 64.538 106.654L65.1366 106.785L63.0342 106.916C63.589 106.167 63.9998 105.322 64.246 104.424ZM66.1148 106.187C66.1297 106.386 66.1297 106.586 66.1148 106.785H65.779C65.9043 106.593 66.0165 106.394 66.1148 106.187ZM66.874 106.974C66.9704 107.169 67.1164 107.335 67.2973 107.455L66.29 107.805C66.5298 107.563 66.7272 107.282 66.874 106.974ZM57.3111 101.057C58.4937 101.771 59.7347 102.442 61.0049 103.054C61.0049 103.054 61.0049 103.2 60.9027 103.273C60.6386 103.761 60.4701 104.295 60.4063 104.846C60.1986 105.027 59.9678 105.179 59.7201 105.298L58.5375 103.841C58.831 103.365 59.2185 102.953 59.6763 102.631H58.4353C58.2961 102.891 58.1836 103.165 58.0995 103.447L57.5885 102.85C57.3748 102.609 57.2351 102.312 57.1859 101.994C57.1367 101.676 57.1802 101.351 57.3111 101.057ZM58.1725 105.327C58.1286 104.859 58.236 104.389 58.4791 103.987L59.6325 105.342C59.2069 105.552 58.7339 105.647 58.2601 105.619C58.2223 105.525 58.1929 105.427 58.1725 105.327ZM57.2089 105.225C56.999 105.051 56.8267 104.835 56.7022 104.592C56.5778 104.349 56.5038 104.084 56.4847 103.811C56.4656 103.539 56.5018 103.266 56.5911 103.008C56.6805 102.75 56.8211 102.513 57.0045 102.311L58.0557 103.549C57.9308 104.025 57.8961 104.519 57.9535 105.007C57.9991 105.205 58.0576 105.399 58.1287 105.59C57.7942 105.556 57.4757 105.43 57.2089 105.225ZM59.3697 106.785C59.1317 106.752 58.9081 106.652 58.7246 106.497C58.5411 106.343 58.4054 106.139 58.3331 105.91C58.9303 106.108 59.5755 106.108 60.1727 105.91C60.0413 106.45 59.8661 106.785 59.3697 106.785ZM60.9611 106.348C61.0215 106.252 61.0705 106.149 61.1071 106.042C61.2698 106.403 61.5538 106.697 61.91 106.872C61.8279 106.887 61.7439 106.887 61.6618 106.872C61.5151 106.838 61.3772 106.773 61.2566 106.683C61.136 106.593 61.0354 106.478 60.9611 106.348ZM62.0268 107.193C62.0268 107.193 62.129 107.193 62.1874 107.193C62.4333 107.206 62.6775 107.145 62.8882 107.018L65.5162 106.872H65.6476H66.0418C65.9624 107.295 65.7877 107.693 65.5308 108.038C64.9468 108.271 64.3774 108.534 63.808 108.796C63.3813 108.746 62.9807 108.565 62.6616 108.278C62.3425 107.99 62.1207 107.611 62.0268 107.193ZM88.4962 105.604C89.5912 105.298 90.6862 104.934 91.7665 104.54C91.7527 104.642 91.7527 104.745 91.7665 104.846C91.3937 105.069 91.0545 105.344 90.7592 105.663C90.7592 105.663 90.7592 105.575 90.7592 105.531L90.438 105.939C90.3871 105.874 90.3282 105.815 90.2628 105.765C89.6496 105.415 89.0802 105.765 88.54 106.246C88.4631 106.041 88.4478 105.818 88.4962 105.604ZM89.2116 106.756C89.5766 106.391 89.9124 106.129 90.2628 106.158L90.1314 106.333C89.8851 106.579 89.5589 106.729 89.2116 106.756ZM88.9926 106.989L89.1094 107.076C89.3206 107.232 89.5765 107.317 89.8394 107.317C90.1022 107.317 90.3581 107.232 90.5694 107.076L90.9198 107.441C90.8948 107.525 90.8655 107.607 90.8322 107.688C90.1898 107.484 89.5474 107.309 88.8904 107.149L88.9926 106.989ZM91.1825 107.805V107.717L91.5475 107.936L91.1825 107.805ZM91.1825 107.688V107.776H90.9928C90.9967 107.708 90.9967 107.64 90.9928 107.572L91.1825 107.732V107.688ZM91.0657 106.697C91.5037 106.304 91.8979 105.808 92.2775 105.502L92.3943 105.633L91.3869 107.339C91.2416 107.139 91.1192 106.924 91.0219 106.697H91.0657ZM88.4524 105.619C88.3916 105.843 88.3916 106.08 88.4524 106.304C88.321 106.435 88.1896 106.552 88.0728 106.683C88.045 106.333 88.1052 105.983 88.248 105.663L88.4524 105.619ZM93.4163 107.076C93.2839 107.317 93.1046 107.528 92.889 107.699C92.6733 107.869 92.4257 107.994 92.1607 108.067L91.9855 107.994C91.7316 107.867 91.5153 107.676 91.3577 107.441L92.3651 105.721C92.7009 106.071 93.0951 106.406 93.3871 106.712C93.3871 106.799 93.3871 106.872 93.3871 106.96C93.3871 107.047 93.4455 106.989 93.4455 107.018L93.4163 107.076ZM87.9414 106.916C87.2893 106.77 86.6177 106.639 85.9266 106.522C85.9266 106.42 85.9266 106.318 86.0288 106.202C86.715 106.056 87.4012 105.91 88.0874 105.721C87.9328 106.079 87.8676 106.469 87.8976 106.858L87.9414 106.916ZM85.7514 106.537L85.0361 106.42L85.8244 106.26C85.7933 106.35 85.7689 106.443 85.7514 106.537ZM93.7083 107.849C93.6215 107.962 93.5085 108.054 93.3789 108.115C93.2493 108.175 93.1069 108.204 92.9637 108.198C93.0513 108.082 93.1243 107.951 93.1973 107.834C93.2975 107.622 93.3805 107.403 93.4455 107.178C93.4861 107.079 93.5203 106.976 93.5477 106.872C93.8105 107.164 93.9419 107.484 93.7083 107.819V107.849ZM95.0077 106.391C94.6343 106.399 94.2692 106.281 93.9711 106.056C93.8385 105.884 93.6972 105.718 93.5477 105.561C93.4707 105.16 93.3062 104.782 93.0659 104.453C93.0515 104.303 93.0515 104.151 93.0659 104.001L94.2485 103.491C94.6364 104.036 94.7986 104.71 94.7011 105.371L95.3289 104.555C95.0988 104.095 94.7698 103.692 94.3653 103.375C95.0223 103.083 95.6647 102.762 96.2925 102.427L96.6429 104.555C96.6875 104.79 96.6781 105.031 96.6153 105.262C96.5525 105.492 96.438 105.706 96.2804 105.885C96.1229 106.065 95.9264 106.207 95.7059 106.299C95.4854 106.392 95.2466 106.433 95.0077 106.42V106.391ZM96.8619 105.269L96.3655 102.471C96.5782 102.596 96.8232 102.656 97.07 102.643C97.3167 102.63 97.5541 102.545 97.7524 102.398C97.8887 102.545 97.9931 102.719 98.059 102.908C98.1388 103.123 98.1784 103.35 98.1758 103.579H98.1174L98.2196 103.666C98.1823 104.042 98.0331 104.399 97.7911 104.69C97.5491 104.981 97.2255 105.192 96.8619 105.298V105.269ZM100.395 100.708C100.612 100.925 100.747 101.211 100.776 101.517C100.805 101.822 100.727 102.129 100.556 102.384C100.319 102.755 99.9904 103.06 99.6019 103.27C99.2135 103.479 98.7778 103.585 98.3364 103.579C98.3364 103.579 98.3364 103.462 98.3364 103.404C98.2516 103.027 98.1035 102.667 97.8984 102.34C98.8328 101.64 99.592 100.154 100.395 100.708ZM81.4153 105.983C80.2181 105.896 79.0064 105.852 77.78 105.852C76.9624 105.852 76.174 105.852 75.371 105.969C73.6789 105.761 72.0144 105.37 70.4071 104.803C70.2143 104.641 69.9726 104.549 69.7209 104.54C58.8733 100.241 52.9458 87.839 52.9312 73.9358C52.7968 66.7568 54.5325 59.6661 57.9681 53.3578C58.9927 53.5528 60.0533 53.3989 60.9798 52.9206C61.9064 52.4423 62.6452 51.6674 63.078 50.72C63.2109 50.4923 63.3232 50.2533 63.4138 50.0059C63.7459 49.7883 64.0252 49.4995 64.2314 49.1606C64.4133 48.9032 64.5297 48.6055 64.5704 48.2932C64.6111 47.9808 64.5749 47.6633 64.465 47.368C65.0663 47.0061 65.6121 46.5594 66.0856 46.0418V46.2459H66.1732L66.6404 45.6192C66.7375 45.7097 66.8454 45.788 66.9616 45.8524C67.0396 45.9804 67.1275 46.1022 67.2244 46.2167C67.6884 46.7443 68.2679 47.1582 68.9179 47.4263C68.073 47.9369 67.08 48.1475 66.1002 48.0239V48.1113L67.3995 49.1169C68.147 48.729 68.8038 48.1876 69.3267 47.5284C70.0563 47.7393 70.8309 47.7393 71.5605 47.5284L71.6627 47.6158C71.8442 47.5196 72.0197 47.4126 72.1883 47.2952C72.8166 47.0362 73.3984 46.6769 73.911 46.2313C74.1104 46.0884 74.2961 45.9274 74.4658 45.7504C74.8501 45.6533 75.2087 45.4743 75.517 45.2257C75.7741 45.0421 75.9827 44.799 76.1251 44.5173C76.2675 44.2355 76.3394 43.9236 76.3346 43.608C77.023 43.4675 77.6871 43.2269 78.3056 42.8939C78.3056 42.8939 78.3056 43.0397 78.3056 43.098L78.9626 42.6753C79.027 42.7878 79.1003 42.895 79.1815 42.996C79.3467 43.1899 79.5574 43.3401 79.7947 43.4332C80.1717 43.9747 80.6721 44.4192 81.2547 44.7302C80.7029 45.0588 80.0723 45.2323 79.4297 45.2323C78.7872 45.2323 78.1566 45.0588 77.6048 44.7302V44.8031L78.4954 46.1876C79.5151 46.0607 80.4774 45.6461 81.2693 44.9925L81.4591 44.7739C81.7405 44.9155 82.0336 45.0325 82.3351 45.1237L83.0213 46.1876C84.0365 46.0604 84.994 45.6457 85.7806 44.9925C86.06 44.7332 86.2921 44.4275 86.4668 44.089L86.6274 45.3569C87.1237 45.5171 87.6393 45.6102 88.1604 45.6338C88.1752 45.8012 88.2045 45.9669 88.248 46.1293C88.3866 46.6925 88.6447 47.2195 89.0049 47.6746C89.365 48.1296 89.8189 48.5022 90.3358 48.7671C90.9018 49.3757 91.616 49.8275 92.4089 50.0787C92.9565 50.2428 93.5403 50.2428 94.0879 50.0787C94.0986 50.4348 94.1576 50.7878 94.2631 51.128C94.3829 51.7156 94.6343 52.2686 94.9983 52.7455C95.3624 53.2225 95.8297 53.6112 96.3655 53.8825C96.9306 54.4953 97.6447 54.9521 98.4386 55.2087C98.9601 55.3464 99.5085 55.3464 100.03 55.2087C102.713 60.8716 104.057 67.0745 103.957 73.3383C103.957 89.719 96.0297 104.307 81.4007 105.969L81.4153 105.983ZM114.367 65.6434C114.221 65.0459 114.046 64.4483 113.871 63.8654C114.166 64.3602 114.387 64.8953 114.528 65.4539L114.367 65.6434ZM115.097 63.7051C114.608 63.182 114.023 62.7566 113.374 62.4518C113.214 62.0145 113.038 61.5919 112.863 61.1693L113.476 61.3879C113.957 61.5539 114.373 61.8675 114.664 62.2838C114.955 62.7 115.106 63.1975 115.097 63.7051ZM114.601 61.6211L112.776 60.9798C112.733 60.8607 112.684 60.744 112.63 60.6301C113.168 60.6931 113.714 60.6485 114.236 60.4989C114.356 60.4543 114.473 60.4007 114.586 60.3386C114.679 60.7606 114.683 61.1971 114.601 61.6211Z" fill="#2C2C2C"/>
</svg>
