<svg width="156" height="156" viewBox="0 0 156 156" fill="none" xmlns="http://www.w3.org/2000/svg">
<rect x="0.5" y="0.5" width="155" height="155" stroke="#2C2C2C"/>
<circle cx="78" cy="78" r="77.5" stroke="#2C2C2C"/>
<path d="M90.428 113.256L92.2842 113.151L92.9519 113.757L93.259 112.927L91.5631 111.44L91.9904 110.939L92.2174 111.111L92.2976 111.65L92.7649 111.374L92.6047 110.189L93.5127 109.097L93.0988 108.386L92.5913 108.991H92.4177C92.3938 108.733 92.3938 108.473 92.4177 108.215L92.618 108.109C98.1304 105.422 102.771 101.268 106.015 96.1184C109.26 90.9683 110.979 85.0267 110.979 78.9643C110.977 77.1979 110.812 75.4355 110.485 73.6987C110.71 67.9992 109.268 62.3562 106.332 57.4412L106.933 54.1239L108.108 53.3077L106.933 52.5969L104.035 54.5978L105.451 51.3068L104.236 50.0694L103.515 51.7281L101.552 52.5179C101.124 52.2283 100.679 51.9519 100.216 51.6886L100.737 48.0027L99.2014 46.9364L98.9477 48.7267L98.4269 49.1084L97.639 47.9895L97.9061 46.5941L96.5707 46.8837L96.0232 49.7798L95.676 49.7008L95.5425 49.5034L95.636 46.0018L94.0335 45.3304V47.1339H93.9534L92.1373 44.5011L92.5513 42.2632L90.388 42.7239L89.9206 45.2119L88.8924 39.8674L86.7291 39.4066L87.0896 41.6708L86.5956 42.3948C86.0402 42.2424 85.4959 42.0533 84.9664 41.8288L81.7482 40.5124L78.303 32.4561H74.4037L75.9661 36.1288L73.0683 43.29L72.1736 41.2627L72.6811 39.9463H71.3457L70.0104 43.4743L67.9005 40.9731L65.6971 41.6708L67.166 43.4348L66.9123 46.1861L66.2179 45.2909L66.3915 43.8297L65.0562 44.1983L64.4953 48.6345L59.7147 45.383L58.0989 46.3967L59.7414 47.5024L60.783 52.8602V53.1234L55.4416 49.477L54.0127 50.3722L55.4683 51.3595L56.3496 55.8879L55.2413 55.3218L54.3199 54.1897L54.3733 53.0313L53.2516 53.3341L53.118 54.2687L53.0379 54.1897L52.6106 52.8733L51.5557 53.7553L52.7041 57.4676V57.7835C52.6365 58.4466 52.5114 59.1028 52.3302 59.7449C49.8903 62.7058 48.2299 66.2147 47.4962 69.9601C47.2558 71.1054 47.0822 72.1848 46.922 73.2248C45.6624 76.7927 45.0214 80.5442 45.0257 84.322C44.9162 89.2923 46.2575 94.189 48.89 98.4294C51.5225 102.67 55.3354 106.075 59.875 108.241V110.874L60.556 111.163V110.36L61.7044 109.176L62.746 109.584L62.105 110.36L60.9299 110.466L61.464 111.492H61.9047L60.4358 113.046L60.7563 113.717L61.3038 113.138L63.2267 113.006L62.2252 113.454L62.5991 113.796C53.305 118.206 47.4561 127.5 47.4561 138.966V156H48.284V138.966C48.284 125.802 57.2042 113.296 71.8265 112.137C89.0927 110.729 99.1613 122.445 99.1613 141.783V156H108.509V141.783C108.562 126.67 101.111 117.377 90.428 113.256ZM59.7147 59.5869C65.6103 56.5279 72.3363 55.3852 78.9306 56.3223C83.4086 56.8287 87.7739 58.0468 91.8569 59.9292C95.8387 64.2102 98.7314 69.3629 100.296 74.9624C104.476 89.061 101.338 103.541 89.2262 108.807C88.3287 109.201 87.4052 109.536 86.462 109.807C82.9475 110.881 79.2079 111.022 75.6206 110.215C72.0333 109.409 68.7255 107.683 66.031 105.213L65.8974 104.976H65.8173C60.9499 100.454 57.4506 94.6896 55.7086 88.3238C52.5038 77.5294 53.6255 66.5112 59.7147 59.5869Z" fill="#2C2C2C"/>
</svg>
