<svg width="156" height="157" viewBox="0 0 156 157" fill="none" xmlns="http://www.w3.org/2000/svg">
<rect x="0.5" y="0.5" width="155" height="155" stroke="#2C2C2C"/>
<circle cx="78" cy="78.0469" r="77.5" stroke="#2C2C2C"/>
<path d="M86.9359 107.565C93.8411 105.567 99.9015 101.386 104.197 95.657C109.942 89.3251 113.083 81.0816 112.998 72.5589C112.998 54.1479 97.4091 43 79.4106 43C73.877 43.0018 68.4127 44.2222 63.4111 46.5734C58.4094 48.9246 53.9949 52.3479 50.4854 56.5971C50.1054 56.9892 49.7725 57.4237 49.4934 57.892C45.1872 63.8518 42.9129 71.0231 43.0026 78.3581C43.0026 94.2917 54.241 104.581 68.7957 107.284L69.4901 107.481C56.0267 110.676 47.0699 122.049 47.0699 136.786V155H47.9628V136.786C47.9628 122.978 57.1463 109.775 72.2253 108.184C75.4045 108.834 78.6686 108.967 81.8907 108.578C94.6455 111.267 101.958 122.767 101.958 139.798V155H111.879V139.798C111.921 121.007 101.207 110.634 86.9359 107.565ZM84.7818 101.147C82.6625 101.468 80.5195 101.61 78.376 101.569C75.5555 101.502 72.7511 101.124 70.0145 100.443C69.2727 99.1636 68.9368 97.6919 69.0508 96.2201C69.2245 94.3051 70.0731 92.5124 71.4472 91.158C72.8213 89.8035 74.6326 88.9743 76.562 88.8163C81.508 88.0984 87.2619 91.0121 87.4036 95.9385C87.3795 96.9463 87.1306 97.9361 86.6747 98.8367C86.2189 99.7373 85.5675 100.526 84.7676 101.147H84.7818ZM69.065 45.4069C84.385 41.0013 97.0123 52.3322 101.717 68.3362C104.254 77.0631 104.183 85.9167 101.179 92.9404C97.1834 97.0359 92.0104 99.8038 86.369 100.865C86.8887 99.8733 87.2747 98.8179 87.517 97.7262C88.3531 93.5035 86.4116 86.902 79.7082 85.79C73.3024 84.7062 69.3768 89.4356 68.6115 94.7703C68.318 96.6737 68.6406 98.6205 69.5326 100.33C66.9654 99.665 64.4797 98.7209 62.1207 97.515C58.5082 93.1453 55.8578 88.0723 54.3402 82.623C49.5926 66.4782 53.7591 49.7985 69.065 45.4069Z" fill="#2C2C2C"/>
</svg>
