<svg width="64" height="64" viewBox="0 0 64 64" fill="none" xmlns="http://www.w3.org/2000/svg">
<g clip-path="url(#clip0)">
<path d="M52.9335 40.3543C51.9198 45.1521 49.8476 49.6235 46.8887 53.3982C43.9297 57.173 40.169 60.1424 35.9182 62.0606C34.453 62.2468 32.9721 62.2468 31.5068 62.0606C24.7048 61.3661 18.4002 57.9598 13.8556 52.5239C9.31103 47.0879 6.86207 40.0237 6.99918 32.7459C6.99918 32.7459 6.99918 32.2238 6.99918 32C6.99918 31.7762 6.99918 31.5524 6.99918 31.2541C6.86207 23.9763 9.31103 16.9121 13.8556 11.4761C18.4002 6.04019 24.7048 2.63387 31.5068 1.93939C32.9721 1.75324 34.453 1.75324 35.9182 1.93939C40.1627 3.86786 43.9177 6.84049 46.8754 10.6136C49.8331 14.3866 51.9092 18.8527 52.9335 23.6457H53.4937L58.5353 14.9184C54.534 9.33286 49.1512 5.04516 42.9904 2.53613C40.0694 1.05692 36.9066 0.195626 33.6775 0L30.0364 0C23.6038 0.0220717 17.3398 2.19326 12.1267 6.20775C6.91357 10.2222 3.01402 15.8777 0.977302 22.3776C0.17077 25.5088 -0.160183 28.7574 -0.00300452 32C-0.123392 35.1184 0.207243 38.2381 0.977302 41.2494C3.0048 47.7554 6.90201 53.4172 12.1172 57.4333C17.3324 61.4494 23.6013 63.6162 30.0364 63.627C31.179 63.7017 32.3248 63.7017 33.4675 63.627C36.6874 63.4802 39.8501 62.6696 42.7804 61.2401C48.9505 58.8568 54.3963 54.7314 58.5353 49.3054L53.4937 40.2051L52.9335 40.3543Z" fill="#2C2C2C"/>
<path d="M25.9062 57.2858V6.56318C25.9062 3.43032 25.346 2.08766 24.0156 1.34174V0.67041H34.3789V1.34174C33.1185 2.08766 32.5583 3.43032 32.5583 6.56318V57.2858C32.5583 60.4187 33.1185 61.7613 34.3789 62.5818V63.3278H24.0156V62.5818C25.346 61.7613 25.9062 60.4187 25.9062 57.2858Z" fill="#2C2C2C"/>
<path d="M63.9969 31.9994C63.8776 32.7246 63.5515 33.3929 63.0628 33.9135C62.5742 34.4341 61.9467 34.7815 61.266 34.9085C60.5853 34.7815 59.9579 34.4341 59.4692 33.9135C58.9805 33.3929 58.6544 32.7246 58.5352 31.9994C58.6544 31.2743 58.9805 30.6059 59.4692 30.0853C59.9579 29.5648 60.5853 29.2173 61.266 29.0903C61.9467 29.2173 62.5742 29.5648 63.0628 30.0853C63.5515 30.6059 63.8776 31.2743 63.9969 31.9994V31.9994Z" fill="#2C2C2C"/>
</g>
<defs>
<clipPath id="clip0">
<rect width="64" height="64"/>
</clipPath>
</defs>
</svg>
