<svg xmlns="http://www.w3.org/2000/svg" viewBox="0 0 71.1 87.45"><g id="Layer_2" data-name="Layer 2"><g id="Layer_2-2" data-name="Layer 2"><path d="M58.8,38.2l-1.64-2.6c3.4-12.29-4.66-22.75-16.54-26.39L34.86,0,30.17,7.85l-.2.34A24.48,24.48,0,0,0,8.52,26a19.56,19.56,0,0,0,1.7,15.64A32.92,32.92,0,0,1,0,51.43V52H22.89c.83.32,1.67.61,2.53.86s1.68.43,2.54.59C17.79,55.31,11,63.63,11,74.51V87.45h.62V74.51c0-10,6.68-19.5,17.62-20.39C42.14,53.05,49.7,62,49.7,76.65v10.8h7V76.65c0-14.13-8.45-21.55-19.41-23.23a26.3,26.3,0,0,0,5-1.42H71.1v-.57A50.33,50.33,0,0,1,58.8,38.2ZM49.34,23.12,42.21,11.74A20.29,20.29,0,0,1,49.34,23.12ZM29.5,9,15.39,33.13c0-.65-.07-1.3-.07-2C15.33,20.42,20.3,10.79,29.5,9Zm2.84,44.07c-.56,0-1.1,0-1.65.08-8.86-1.07-14.18-9-15.19-18.59l15-25.72.29,0L49.43,38.22A27.08,27.08,0,0,1,48,42.52a55.43,55.43,0,0,1-3.48,5.56,1.59,1.59,0,0,1-.13.13l-.74.77a14.93,14.93,0,0,1-8.83,4.16Q33.6,53.05,32.34,53.05Z"/></g></g></svg>