<svg xmlns="http://www.w3.org/2000/svg" viewBox="0 0 53.33 80.69"><g id="Layer_2" data-name="Layer 2"><g id="Layer_2-2" data-name="Layer 2"><path d="M53.33,60.61c-1.48-.76-2.12-2-2.12-5V25a26.27,26.27,0,0,0,.15-2.83c0-11.4-8.36-18.91-18.91-20.65C22.42-2,11.56.5,6,10.4a24.73,24.73,0,0,0-2.76,7.67A25.46,25.46,0,0,0,2,26.25a20.68,20.68,0,0,0,1.9,8.88v16c0,3.64-.92,8.05-3.87,9.49v.68H4.66a23.72,23.72,0,0,0-.87,6.46V80.69h.62V67.75a22.66,22.66,0,0,1,1-6.46h6v-.68c-1-.13-.37.28-1.18-.27a9.43,9.43,0,0,1,2.62-9.68,18.17,18.17,0,0,1,8.76-3.23c.59.12,1.19.22,1.79.29a24.65,24.65,0,0,0,7.44.72C38.32,51.24,42.51,59,42.51,69.89v10.8h7V69.89a28.1,28.1,0,0,0-1.25-8.6h5ZM43.4,19.14c.14.48.25,1,.37,1.46.1,1.08.16,2.19.16,3.33V34c-.07.25-.15.5-.22.75-3.84,5.24-10,8.19-17.7,8a26.74,26.74,0,0,1-9.89-2.14A28.29,28.29,0,0,1,9.93,29.28a31.39,31.39,0,0,1-1.25-9.89,31.28,31.28,0,0,1,5.79-7.76C19.62,6.55,26,3.58,32,3.84,37.29,6.53,41.38,12.22,43.4,19.14Z"/><path d="M26.69,28H23.53l1.32,1-6,5.06a10.86,10.86,0,0,1-4.2,2.21v.1h4.76v-.1c-1.72-.54-1.52-1.13-.24-2.21L25,29.15l7.11,5.54c1.11.88,1.43,1.3.43,1.61v.1h6.11v-.1a15.73,15.73,0,0,1-4.15-2.21Z"/></g></g></svg>