<svg xmlns="http://www.w3.org/2000/svg" viewBox="0 0 5.78 10.65"><g id="Layer_2" data-name="Layer 2"><g id="Layer_1-2" data-name="Layer 1"><path d="M0,5A5,5,0,0,1,1.33,7.15l1.49,3.5h1l-.39-.91,1-2.55A6.43,6.43,0,0,1,5.78,5V4.88H4.84a1.41,1.41,0,0,0,.27-.72c0-.67-.47-1-1.11-1.3a1.67,1.67,0,0,0,.78-1.42A1.49,1.49,0,0,0,3.16,0,1.73,1.73,0,0,0,1.39,1.72a1.27,1.27,0,0,0,.19.69c.53,1.32,3.38,1,3.2,2.22a.62.62,0,0,1-.11.25h-.3V5l.11.13a1.64,1.64,0,0,1-1.12.39A2.67,2.67,0,0,1,1.25,3.85H1.19L1,4.88H0ZM1.94,1.9c-.22-.78,0-1.57.72-1.78S4,.45,4.24,1.24a1.52,1.52,0,0,1-.33,1.59A5.48,5.48,0,0,1,1.94,1.9ZM4.55,5.18c.3.44.15,1.06-.23,2l-1,2.45L1.91,6.29a1.92,1.92,0,0,1-.24-1,3.15,3.15,0,0,0,1.38.31A2.35,2.35,0,0,0,4.55,5.18Z"/></g></g></svg>