<svg xmlns="http://www.w3.org/2000/svg" viewBox="0 0 8.21 13.48"><g id="Layer_2" data-name="Layer 2"><g id="Layer_1-2" data-name="Layer 1"><path d="M4.1,13.48h1l-.4-1L8.21,3.49l-.08,0A4.12,4.12,0,0,1,5,5H4.67V.9c0-.48.11-.68.33-.8V0H3.22V.1c.21.12.33.32.33.8V5H3.23A4.1,4.1,0,0,1,.09,3.45L0,3.49ZM2.23,5.57H3.74l.78.75-1.82,1h0l-.24-.6a3.27,3.27,0,0,1-.3-1.18Zm2.38,6.75L2.86,7.82l.06,0,2-1.12L5.25,7a10,10,0,0,1,.91,1Zm1.78-5,0,.09c-.19.24-.49.1-1.12-.5L3.81,5.57H6.29a.43.43,0,0,1,.33.09A2.71,2.71,0,0,1,6.39,7.36Z"/></g></g></svg>