<svg xmlns="http://www.w3.org/2000/svg" viewBox="0 0 20.59 8.11"><path d="M20.59,4.06V3.11l-1,.39L10.64,0l0,.09a4,4,0,0,1,1.58,3.1V3.5H5.59A1.65,1.65,0,0,0,4.16,2c-.67-.05-1,.47-1.3,1.1a1.67,1.67,0,0,0-1.42-.78A1.5,1.5,0,0,0,0,3.94,1.73,1.73,0,0,0,1.72,5.7a1.36,1.36,0,0,0,.69-.18,1.5,1.5,0,0,0,.77-.83,1.4,1.4,0,0,1,.53-.08h8.47v.31A4.06,4.06,0,0,1,10.6,8l0,.08ZM.12,4.44C-.1,3.7.45,3.09,1.24,2.86a1.51,1.51,0,0,1,1.58.32v0a5.37,5.37,0,0,1-.92,2C1.12,5.37.33,5.17.12,4.44ZM4.63,2.32c.41.05.76.53.83,1.18H3.61C3.83,2.81,4.06,2.23,4.63,2.32Zm7.66-.45h0c.54-.51,7.15,1.68,7.15,1.68L13.9,5.69c-.87.33-1.29.43-1.61.13h0Z" fill="#ECE9E5"/></svg>