<svg width="80" height="80" viewBox="0 0 80 80" fill="none" xmlns="http://www.w3.org/2000/svg">
<circle cx="40" cy="40" r="39.5" stroke="#ECE9E5"/>
<path d="M22 38.2709C25.8628 40.5458 28.7152 43.3959 30.2837 46.5479L39.564 60.0221H45.7924L43.3633 56.5188L49.5917 46.7019C51.447 43.5702 54.307 40.7024 58 38.2709V37.809H52.1453C53.1105 36.9992 53.6927 36.0395 53.827 35.0371C53.827 32.4578 50.8997 31.1874 46.9135 30.0324C48.4073 29.4509 49.637 28.644 50.4869 27.6876C51.3368 26.7312 51.7789 25.6569 51.7716 24.5658C51.7341 23.7848 51.4388 23.0168 50.9039 22.3088C50.369 21.6009 49.6057 20.968 48.6609 20.4489C47.7161 19.9298 46.6097 19.5355 45.4096 19.2901C44.2095 19.0448 42.9409 18.9536 41.6817 19.0221C40.2511 19.0016 38.8282 19.1575 37.4961 19.4806C36.164 19.8037 34.9494 20.2876 33.9232 20.904C32.8969 21.5204 32.0796 22.257 31.5189 23.0708C30.9582 23.8846 30.6653 24.7592 30.6574 25.6437C30.6318 26.581 31.0425 27.503 31.8408 28.3C35.1419 33.3817 52.8927 32.1498 51.7716 36.8465C51.6618 37.1948 51.4278 37.5236 51.0865 37.809H49.218V38.2709L49.9031 38.7714C47.9623 39.7922 45.4742 40.3277 42.9273 40.2728C40.0121 40.0163 37.2592 39.286 34.9503 38.1564C32.6413 37.0268 30.859 35.5385 29.7855 33.8437H29.4118L28.2284 37.809H22V38.2709ZM34.083 26.3367C32.7128 23.3338 34.083 20.2925 38.5675 19.4841C43.0519 18.6756 46.9135 20.7545 48.4083 23.7958C49.0371 24.8318 49.1777 25.9568 48.8139 27.0402C48.4501 28.1237 47.5968 29.1211 46.3529 29.9169C41.9165 29.2431 37.7441 28.0256 34.083 26.3367V26.3367ZM50.3391 38.9639C52.2076 40.6578 51.2734 43.0446 48.9066 46.6634L42.6782 56.0953L33.8962 43.2371C32.8408 42.0618 32.324 40.7308 32.4014 39.3874C35.083 40.1827 38.0222 40.5908 40.9965 40.5808C44.3176 40.714 47.6129 40.1437 50.3391 38.9639V38.9639Z" fill="#ECE9E5"/>
</svg>
