<svg width="80" height="80" viewBox="0 0 80 80" fill="none" xmlns="http://www.w3.org/2000/svg">
<circle cx="40" cy="40" r="39.5" stroke="#2C2C2C"/>
<path d="M39.9854 70L42.9086 70L41.7393 67.1248L52 41.2476L51.7369 41.2476C50.6435 42.6208 49.2518 43.7362 47.6636 44.5123C46.0755 45.2883 44.331 45.7054 42.5579 45.7329L41.6224 45.7329L41.6224 13.559C41.6224 12.2076 41.9732 11.6038 42.5871 11.2588L42.5871 11L37.3837 11L37.3837 11.2588C38.0268 11.6038 38.3484 12.2076 38.3484 13.559L38.3484 45.7329L37.3837 45.7329C35.6163 45.6971 33.8789 45.2762 32.2968 44.5006C30.7146 43.725 29.327 42.614 28.2339 41.2476L28 41.2476L39.9854 70ZM34.4604 47.2568L38.933 47.2568L41.1839 49.4133L35.8928 52.2885L35.2205 50.5921C34.7138 49.5153 34.4164 48.3549 34.3435 47.1706L34.4604 47.2568ZM41.4762 66.6935L36.3605 53.7261L36.5359 53.7261L42.2363 50.4196L43.2302 51.4834C44.1819 52.3817 45.0706 53.3423 45.8904 54.3587L41.4762 66.6935ZM46.6797 52.3173L46.6797 52.576C46.095 53.2661 45.2473 52.8348 43.4056 51.1096L39.1376 47.2568L46.3873 47.2568C46.7298 47.2289 47.0714 47.3205 47.352 47.5156C47.6721 49.1829 47.4362 50.9074 46.6797 52.4323L46.6797 52.3173Z" fill="#2C2C2C"/>
</svg>
