<svg width="172" height="263" viewBox="0 0 172 263" fill="none" xmlns="http://www.w3.org/2000/svg">
<path fill-rule="evenodd" clip-rule="evenodd" d="M171 6.5602V256.44C158.536 260.377 145.266 262.5 131.5 262.5C59.1507 262.5 0.5 203.849 0.5 131.5C0.5 59.1507 59.1507 0.5 131.5 0.5C145.266 0.5 158.536 2.62328 171 6.5602Z" fill="#ECE9E5"/>
<path d="M171 6.5602H171.5V6.19378L171.151 6.08342L171 6.5602ZM171 256.44L171.151 256.917L171.5 256.806V256.44H171ZM170.5 6.5602V256.44H171.5V6.5602H170.5ZM170.849 255.963C158.433 259.885 145.214 262 131.5 262V263C145.317 263 158.638 260.869 171.151 256.917L170.849 255.963ZM131.5 262C59.4268 262 1 203.573 1 131.5H0C0 204.125 58.8746 263 131.5 263V262ZM1 131.5C1 59.4268 59.4268 1 131.5 1V0C58.8746 0 0 58.8746 0 131.5H1ZM131.5 1C145.214 1 158.433 3.11527 170.849 7.03699L171.151 6.08342C158.638 2.13129 145.317 0 131.5 0V1Z" fill="#2C2C2C"/>
</svg>
