<svg xmlns="http://www.w3.org/2000/svg" viewBox="0 0 8.21 20.52"><g id="Layer_2" data-name="Layer 2"><g id="Layer_1-2" data-name="Layer 1"><path d="M4.1,20.52h1l-.4-1,3.55-8.95-.08,0A4.12,4.12,0,0,1,5,12.08H4.67V.9c0-.48.11-.68.33-.8V0H3.22V.1c.21.12.33.32.33.8V12.08H3.23A4.1,4.1,0,0,1,.09,10.5l-.09,0Zm-1.87-7.9H3.74l.78.75-1.82,1h0l-.24-.6a3.32,3.32,0,0,1-.3-1.18Zm2.38,6.75-1.75-4.5.06,0,2-1.11.38.36a10,10,0,0,1,.91,1Zm1.78-5,0,.09c-.19.24-.49.09-1.12-.5L3.81,12.62H6.29a.43.43,0,0,1,.33.09A2.71,2.71,0,0,1,6.39,14.41Z"/></g></g></svg>