<svg xmlns="http://www.w3.org/2000/svg" viewBox="0 0 8.11 20.46"><path d="M4.06,0H3.11L3.5,1,0,10,.09,10A4.62,4.62,0,0,1,2,8.6a2.7,2.7,0,0,0,1.34.7H3.5V19.57c0,.47-.11.67-.32.79v.1H4.93v-.1c-.21-.12-.32-.32-.32-.79V9.25A2.56,2.56,0,0,0,5.8,8.52,4.54,4.54,0,0,1,8,10L8.11,10ZM2.2,7.23C2.1,6,2.62,4.94,3.74,4.85a1.6,1.6,0,0,1,1.56.83l.31.82a2.57,2.57,0,0,1,.06.4,2.68,2.68,0,0,1-.22,1.4H2.5A2.83,2.83,0,0,1,2.2,7.23ZM3.55,1.15,5,5a3.09,3.09,0,0,0-.54-.17,2.65,2.65,0,0,0-2.59,1Zm-1,7.31a3.83,3.83,0,0,1,.6-.05H3.5V9.2A1.65,1.65,0,0,1,2.59,8.46Zm2,.7V8.41h.31a3.28,3.28,0,0,1,.46,0A1.52,1.52,0,0,1,4.61,9.16Z"/></svg>