<svg xmlns="http://www.w3.org/2000/svg" viewBox="0 0 8.11 20.56"><path d="M4.06,0H3.11L3.5,1,1.71,6.08C1.31,7.2,0,9.94,0,9.94l.09,0A4,4,0,0,1,3.19,8.4H3.5V15A1.64,1.64,0,0,0,2,16.4c-.05.68.47,1,1.1,1.3a1.67,1.67,0,0,0-.78,1.42,1.5,1.5,0,0,0,1.63,1.44A1.73,1.73,0,0,0,5.7,18.84a1.39,1.39,0,0,0-.18-.69,1.49,1.49,0,0,0-.83-.76,1.5,1.5,0,0,1-.08-.54V8.4h.31A4.06,4.06,0,0,1,8,10l.08,0ZM5.69,6.68A2.89,2.89,0,0,1,6,7.9a.84.84,0,0,1-.26,0H4.2L3.43,7.3l1.82-.85.29-.14ZM3.55,1.15,5.39,5.9,5,6.08,3.08,7l-.39-.3a2.59,2.59,0,0,1-.78-.94ZM1.71,6.37c.19-.14.43,0,1,.41L4.14,7.93H2c-.24,0-.33,0-.39-.12h0A2.36,2.36,0,0,1,1.71,6.37ZM4.44,20.44c-.74.22-1.35-.34-1.58-1.11a1.52,1.52,0,0,1,.32-1.59h0a5.29,5.29,0,0,1,2,.92C5.37,19.44,5.17,20.23,4.44,20.44ZM2.32,15.93c.05-.41.53-.75,1.18-.82v1.74a.41.41,0,0,1,0,.11C2.81,16.74,2.23,16.5,2.32,15.93Z"/></svg>