<svg xmlns="http://www.w3.org/2000/svg" viewBox="0 0 20.63 8.07"><path d="M20.63,4V3.1l-1,.39L14.53,1.7C13.41,1.31,10.66,0,10.66,0l0,.09A4,4,0,0,1,12.2,3.18v.31H5.6A1.66,1.66,0,0,0,4.17,2c-.68-.05-1,.47-1.3,1.1a1.68,1.68,0,0,0-1.42-.77A1.49,1.49,0,0,0,0,3.92,1.73,1.73,0,0,0,1.73,5.68a1.42,1.42,0,0,0,.69-.18,1.52,1.52,0,0,0,.76-.83,1.5,1.5,0,0,1,.54-.08H12.2V4.9A4,4,0,0,1,10.62,8l0,.08Zm-3.56.42-1.79.69h-.69v-.7c0-1.42.7-1.62,1.23-1.62s1.25.2,1.25,1.62Zm-4.66,1.4a.44.44,0,0,1,.35-.12h1C13.07,6,12.69,6,12.41,5.86Zm7.07-2.32-2.36.9a2.59,2.59,0,0,0-.64-1.95ZM12.31,1.87h0c.55-.51,1.13-.45,2.22-.07l1.26.44c-.62,0-1,.57-1.16,1.31l-1.09-.67a4.24,4.24,0,0,1-1.18-1h0ZM.12,4.42C-.1,3.68.46,3.08,1.24,2.85a1.5,1.5,0,0,1,1.58.32v0A5.31,5.31,0,0,1,1.9,5.14C1.12,5.35.33,5.15.12,4.42ZM4.64,2.31c.41.06.76.53.83,1.18H3.61C3.83,2.8,4.07,2.23,4.64,2.31Zm7.67.75h0c.18-.2.42,0,.9.25l1.29.8c0,.12,0,.23,0,.34v.7H12.76c-.24,0-.34-.05-.4-.17h0Z"/></svg>