<svg xmlns="http://www.w3.org/2000/svg" viewBox="0 0 8.11 20.59"><path d="M4.06,0H3.11L3.5,1,0,10,.09,10A4.62,4.62,0,0,1,2,8.6a2.7,2.7,0,0,0,1.34.7H3.5V15A1.64,1.64,0,0,0,2,16.43c-.05.68.47,1,1.1,1.3a1.67,1.67,0,0,0-.78,1.42,1.5,1.5,0,0,0,1.63,1.44A1.73,1.73,0,0,0,5.7,18.87a1.42,1.42,0,0,0-.18-.69,1.49,1.49,0,0,0-.83-.76,1.5,1.5,0,0,1-.08-.54V9.25A2.56,2.56,0,0,0,5.8,8.52,4.54,4.54,0,0,1,8,10L8.11,10ZM2.2,7.23C2.1,6,2.62,4.94,3.74,4.85a1.6,1.6,0,0,1,1.56.83l.31.82a2.57,2.57,0,0,1,.06.4,2.68,2.68,0,0,1-.22,1.4H2.5A2.83,2.83,0,0,1,2.2,7.23ZM3.55,1.15,5,5a3.09,3.09,0,0,0-.54-.17,2.65,2.65,0,0,0-2.59,1Zm-1,7.31a3.83,3.83,0,0,1,.6-.05H3.5V9.2A1.65,1.65,0,0,1,2.59,8.46Zm1.85,12c-.74.21-1.35-.34-1.58-1.12a1.52,1.52,0,0,1,.32-1.59h0a5.37,5.37,0,0,1,2,.93C5.37,19.47,5.17,20.27,4.44,20.48ZM2.32,16c.05-.41.53-.75,1.18-.83v1.75a.41.41,0,0,1,0,.11C2.81,16.77,2.23,16.53,2.32,16Zm2.29-6.8V8.41h.31a3.28,3.28,0,0,1,.46,0A1.52,1.52,0,0,1,4.61,9.16Z"/></svg>