<svg xmlns="http://www.w3.org/2000/svg" viewBox="0 0 20.59 8.11"><g id="Layer_2" data-name="Layer 2"><g id="Layer_1-2" data-name="Layer 1"><path d="M20.59,4.06V3.11l-1,.39L10.64,0l0,.09A4.7,4.7,0,0,1,12,2a2.64,2.64,0,0,0-.71,1.34.49.49,0,0,1,0,.12H5.59A1.65,1.65,0,0,0,4.16,2c-.67-.05-1,.47-1.3,1.1a1.67,1.67,0,0,0-1.42-.78A1.5,1.5,0,0,0,0,3.94,1.73,1.73,0,0,0,1.72,5.7a1.36,1.36,0,0,0,.69-.18,1.5,1.5,0,0,0,.77-.83,1.4,1.4,0,0,1,.53-.08h7.64a2.46,2.46,0,0,0,.72,1.19A4.46,4.46,0,0,1,10.6,8l0,.08ZM13.37,2.2c1.18-.1,2.28.42,2.38,1.54a1.63,1.63,0,0,1-.83,1.56l-.83.31-.39.06a2.73,2.73,0,0,1-1.41-.22V2.5A2.83,2.83,0,0,1,13.37,2.2Zm6.07,1.35L15.6,5a3.09,3.09,0,0,0,.17-.54,2.63,2.63,0,0,0-1-2.59Zm-7.31-1a3.83,3.83,0,0,1,0,.6V3.5H11.4A1.68,1.68,0,0,1,12.13,2.59ZM.12,4.44C-.1,3.7.45,3.09,1.24,2.86a1.51,1.51,0,0,1,1.58.32v0a5.37,5.37,0,0,1-.92,2C1.12,5.37.33,5.17.12,4.44ZM4.63,2.32c.41.05.76.53.83,1.18H3.61C3.83,2.81,4.06,2.23,4.63,2.32Zm6.81,2.29h.74v.31a3.33,3.33,0,0,1,0,.46A1.52,1.52,0,0,1,11.44,4.61Z"/></g></g></svg>