<svg xmlns="http://www.w3.org/2000/svg" viewBox="0 0 8.21 20.52"><path d="M4.11,0h-1l.4,1L0,10l.09,0A4.27,4.27,0,0,1,2.72,8.47a1.68,1.68,0,0,0-.36,1,1.41,1.41,0,0,0,1.19,1.38v8.76c0,.47-.12.68-.33.8v.09H5v-.09c-.22-.12-.33-.33-.33-.8V10.79A1.66,1.66,0,0,0,5.75,9.21a1.43,1.43,0,0,0-.18-.7l0,0A4.3,4.3,0,0,1,8.13,10l.08,0ZM1.9,8.33h0c-.53-.55-.46-1.14-.08-2.22l1.78-5L5.29,5.51a3.17,3.17,0,0,0-1.2-.22c-1.2,0-2,.63-2,1.48-.05.67.47,1,1.1,1.29a2,2,0,0,0-.31.27ZM3.24,8.1l.62.23h-.8A1,1,0,0,1,3.24,8.1ZM2.91,9.69A1.71,1.71,0,0,1,3,8.46l.26,0h.32v2.21A1.75,1.75,0,0,1,2.91,9.69Zm1.76,1V8.65A1.62,1.62,0,0,1,5.21,9,1.39,1.39,0,0,1,4.67,10.71ZM2.37,6.3c.06-.46.64-.86,1.41-.86A2.65,2.65,0,0,1,5.87,7c.24.66.29,1,0,1.31H5.47C4.75,7.23,2.2,7.46,2.37,6.3Z"/></svg>