<svg xmlns="http://www.w3.org/2000/svg" viewBox="0 0 8.11 20.59"><path d="M4.06,0H3.11L3.5,1,0,10,.09,10a4,4,0,0,1,3.1-1.59H3.5V15A1.64,1.64,0,0,0,2,16.43c-.05.68.47,1,1.1,1.3a1.67,1.67,0,0,0-.78,1.42,1.5,1.5,0,0,0,1.63,1.44A1.73,1.73,0,0,0,5.7,18.87a1.42,1.42,0,0,0-.18-.69,1.49,1.49,0,0,0-.83-.76,1.5,1.5,0,0,1-.08-.54V8.41h.31A4.07,4.07,0,0,1,8,10L8.11,10Zm.38,20.48c-.74.21-1.35-.34-1.58-1.12a1.52,1.52,0,0,1,.32-1.59h0a5.37,5.37,0,0,1,2,.93C5.37,19.47,5.17,20.27,4.44,20.48ZM2.32,16c.05-.41.53-.75,1.18-.83v1.75a.41.41,0,0,1,0,.11C2.81,16.77,2.23,16.53,2.32,16ZM1.87,8.3h0c-.51-.54,1.68-7.15,1.68-7.15L5.69,6.69c.33.88.43,1.3.13,1.61H1.87Z"/></svg>