<svg xmlns="http://www.w3.org/2000/svg" viewBox="0 0 20.54 8.11"><path d="M20.54,4.06V3.11l-1,.39L10.59,0l0,.09a7.08,7.08,0,0,1,.71.73,8.76,8.76,0,0,1-1.4.77L6.14,3.32H.89C.42,3.32.22,3.23.09,3H0V4.93H.09c.13-.21.33-.32.8-.32h5.5L10.81,7a2.91,2.91,0,0,1,.46.32,7.59,7.59,0,0,1-.72.76l0,.08ZM13.32,2.2c1.18-.1,2.29.42,2.38,1.54a1.61,1.61,0,0,1-.83,1.56L14,5.61l-.39.06a2.73,2.73,0,0,1-1.41-.22V2.5A2.88,2.88,0,0,1,13.32,2.2Zm-1.19,1V3.5h-.78a1.68,1.68,0,0,1,.73-.91A3.83,3.83,0,0,1,12.13,3.19Zm0,1.42v.31a3.33,3.33,0,0,1,0,.46,1.52,1.52,0,0,1-.71-.77Zm7.26-1.06L15.55,5a3.09,3.09,0,0,0,.17-.54,2.63,2.63,0,0,0-1-2.59Zm-9.3-2a2.83,2.83,0,0,1,1.45-.38A3.78,3.78,0,0,1,12,2a2.64,2.64,0,0,0-.71,1.34.49.49,0,0,1,0,.12H6.31l-.13-.07Zm.16,4-1.86-1H11.3A2.46,2.46,0,0,0,12,5.8v0C11.66,6.09,11.12,6.06,10.25,5.6Z" fill="#ECE9E5"/></svg>