<svg xmlns="http://www.w3.org/2000/svg" viewBox="0 0 20.56 8.11"><path d="M20.56,4.06V3.11l-1,.39L14.48,1.71C13.36,1.31,10.62,0,10.62,0l0,.09a4,4,0,0,1,1.58,3.1V3.5H5.58A1.65,1.65,0,0,0,4.16,2c-.68-.05-1,.47-1.3,1.1a1.67,1.67,0,0,0-1.42-.78A1.5,1.5,0,0,0,0,3.94,1.73,1.73,0,0,0,1.72,5.7a1.42,1.42,0,0,0,.69-.18,1.52,1.52,0,0,0,.76-.83,1.5,1.5,0,0,1,.54-.08h8.45v.31A4.06,4.06,0,0,1,10.58,8l0,.08ZM13.88,5.69A2.92,2.92,0,0,1,12.66,6a.84.84,0,0,1,0-.26V4.2l.62-.77.86,1.82c.06.11.1.21.14.29Zm5.53-2.14L14.66,5.39A4,4,0,0,1,14.48,5l-.93-1.95.3-.39a2.59,2.59,0,0,1,.94-.78ZM14.19,1.71c.14.19.05.43-.41,1L12.63,4.14V2c0-.24,0-.33.12-.39h0A2.36,2.36,0,0,1,14.19,1.71ZM.12,4.44C-.1,3.7.45,3.09,1.23,2.86a1.52,1.52,0,0,1,1.59.32v0a5.45,5.45,0,0,1-.92,2C1.12,5.37.33,5.17.12,4.44ZM4.63,2.32c.41.05.75.53.82,1.18H3.6C3.82,2.81,4.06,2.23,4.63,2.32Z"/></svg>