<svg xmlns="http://www.w3.org/2000/svg" viewBox="0 0 20.46 8.11"><path d="M20.46,4.06V3.11l-1,.39L10.5,0l0,.09a4.62,4.62,0,0,1,1.4,2,2.7,2.7,0,0,0-.7,1.34.49.49,0,0,0,0,.12H.89c-.47,0-.67-.11-.8-.32H0V4.93H.09c.13-.21.33-.32.8-.32H11.21a2.56,2.56,0,0,0,.73,1.19A4.54,4.54,0,0,1,10.46,8l0,.08ZM13.23,2.2c1.19-.1,2.29.42,2.38,1.54a1.6,1.6,0,0,1-.83,1.56L14,5.61a2.57,2.57,0,0,1-.4.06,2.68,2.68,0,0,1-1.4-.22V2.5A2.83,2.83,0,0,1,13.23,2.2Zm6.08,1.35L15.47,5a3.09,3.09,0,0,0,.17-.54,2.65,2.65,0,0,0-1-2.59ZM12,2.59a3.83,3.83,0,0,1,.05.6V3.5h-.79A1.65,1.65,0,0,1,12,2.59Zm-.7,2h.75v.31a3.28,3.28,0,0,1,0,.46A1.52,1.52,0,0,1,11.3,4.61Z" fill="#ECE9E5"/></svg>