<svg xmlns="http://www.w3.org/2000/svg" viewBox="0 0 8.11 20.56"><path d="M4.06,0H3.11l.4,1L1.71,6.08C1.31,7.2,0,9.94,0,9.94l.09,0A4,4,0,0,1,3.19,8.4H3.5V15A1.64,1.64,0,0,0,2,16.4c-.05.68.47,1,1.11,1.3a1.65,1.65,0,0,0-.78,1.42,1.49,1.49,0,0,0,1.62,1.44A1.73,1.73,0,0,0,5.7,18.84a1.39,1.39,0,0,0-.18-.69,1.54,1.54,0,0,0-.83-.77,1.4,1.4,0,0,1-.08-.53V8.4h.31A4.06,4.06,0,0,1,8,10l.08,0ZM3.31,7.64V5.42A1.18,1.18,0,0,1,4.76,4.28h0l.92,2.4s0,.06,0,.1a1.82,1.82,0,0,1-1,.81A2.39,2.39,0,0,1,3.31,7.64Zm.25-6.49L4.74,4.2a1.27,1.27,0,0,0-1.42.86v-.8a1.43,1.43,0,0,0-1.21.94Zm-.3,3.73,0,2.75A1.52,1.52,0,0,1,2.06,6.5,1.37,1.37,0,0,1,3.26,4.88ZM1.88,8.29h0c-.52-.54-.46-1.13-.07-2.21l.26-.73A2.06,2.06,0,0,0,2,6.11,2.35,2.35,0,0,0,3.5,8.29ZM4.44,20.44c-.74.22-1.35-.34-1.58-1.11a1.5,1.5,0,0,1,.33-1.59h0a5.29,5.29,0,0,1,2,.92C5.37,19.44,5.17,20.23,4.44,20.44ZM2.32,15.93c.06-.41.53-.75,1.18-.82v1.74a.41.41,0,0,1,0,.11C2.81,16.74,2.24,16.5,2.32,15.93ZM4.71,8.29a1.84,1.84,0,0,0,1.19-1c.15.5.15.79-.08,1H4.71Z"/></svg>