<svg xmlns="http://www.w3.org/2000/svg" viewBox="0 0 8.21 20.52"><path d="M4.11,0h-1l.4,1L0,10l.09,0A5.27,5.27,0,0,1,1.53,8.85a2,2,0,0,0,2,.44V19.63c0,.47-.12.68-.33.8v.09H5v-.09c-.22-.12-.33-.33-.33-.8V8.83a3,3,0,0,0,.41-.38A4.13,4.13,0,0,1,8.13,10l.08,0ZM2.29,8.33c-.79-1.49.71-2.54,2-3A3.13,3.13,0,0,1,5,5.22l.52,1.57a2.45,2.45,0,0,1-.48,1.54Zm.06-3.68A1.75,1.75,0,0,1,3.25,4c.86-.29,1.45.28,1.7,1l0,.07a3.5,3.5,0,0,0-.76.15,7,7,0,0,0-1.86.93,1.13,1.13,0,0,1-.28-.81ZM3.6,1.15l1,2.59a2.82,2.82,0,0,0-1.28.13,2.46,2.46,0,0,0-.87.5ZM2,5.7a1,1,0,0,0,.29.59A3.17,3.17,0,0,0,1.58,7a5.85,5.85,0,0,1,.24-.87Zm.47,2.88,0-.05a4.2,4.2,0,0,1,.82-.09h.32v.61A1.31,1.31,0,0,1,2.44,8.58Zm2.23.1V8.44H5A2.09,2.09,0,0,1,4.67,8.68Zm1.22-.35H5.18A2.29,2.29,0,0,0,5.59,7L6,8.17a.7.7,0,0,1-.1.16Z"/></svg>