<svg xmlns="http://www.w3.org/2000/svg" viewBox="0 0 8.07 20.63"><path d="M4,0H3.1l.39,1L1.7,6.1C1.31,7.22,0,10,0,10l.09,0A4,4,0,0,1,3.18,8.43h.31V15A1.65,1.65,0,0,0,2,16.46c-.05.68.47,1,1.1,1.3a1.66,1.66,0,0,0-.77,1.42,1.49,1.49,0,0,0,1.61,1.45A1.73,1.73,0,0,0,5.68,18.9a1.42,1.42,0,0,0-.18-.69,1.57,1.57,0,0,0-.83-.77,1.4,1.4,0,0,1-.08-.53V8.43H4.9A4,4,0,0,1,8,10l.08,0Zm.42,3.56.69,1.79V6h-.7C3,6,2.83,5.33,2.83,4.8S3,3.56,4.45,3.56Zm1.4,4.66a.45.45,0,0,1-.12-.36v-1C6,7.56,6,7.94,5.86,8.22ZM3.54,1.15l.9,2.36a2.59,2.59,0,0,0-1.95.64ZM1.87,8.32h0c-.51-.54-.45-1.13-.07-2.21l.44-1.26c0,.62.57,1,1.31,1.16L2.88,7.09a4.24,4.24,0,0,1-1,1.18v.05ZM4.42,20.51c-.74.22-1.34-.34-1.57-1.12a1.52,1.52,0,0,1,.32-1.59h0c.73.3,1.59.49,1.94.93C5.35,19.5,5.15,20.3,4.42,20.51ZM2.31,16c.06-.41.53-.76,1.18-.83v1.75s0,.07,0,.11C2.8,16.79,2.23,16.56,2.31,16Zm.75-7.67V8.27c-.2-.18,0-.43.25-.9l.8-1.29.34,0h.7V7.86c0,.24-.05.35-.17.41v.05Z"/></svg>