<svg width="156" height="157" viewBox="0 0 156 157" fill="none" xmlns="http://www.w3.org/2000/svg">
<rect x="0.5" y="1" width="155" height="155" stroke="#2C2C2C"/>
<circle cx="78" cy="78.5" r="77.5" stroke="#2C2C2C"/>
<path d="M111.61 86.4197L109.278 82.7227C114.113 65.247 102.652 50.3735 85.7592 45.1976L77.5689 32.1016L70.9 43.2638L70.6156 43.7473C63.5587 44.3636 56.8578 47.1183 51.4078 51.6434C45.9578 56.1685 42.0182 62.2488 40.1149 69.072C38.9564 72.7443 38.5731 76.6172 38.9892 80.4453C39.4053 84.2735 40.6118 87.9736 42.5322 91.3112C38.7547 96.9501 33.796 101.7 28 105.232L28 106.042H60.5482C61.7284 106.498 62.9229 106.91 64.1457 107.265C65.3686 107.621 66.5346 107.877 67.7575 108.104C53.2963 110.749 43.6414 122.58 43.6414 138.05V156.45H44.523V138.05C44.523 123.831 54.0215 110.323 69.5776 109.057C87.9206 107.536 98.6705 120.262 98.6705 141.093V156.45H108.624V141.093C108.624 121.001 96.6087 110.451 81.0242 108.062C83.4549 107.625 85.8365 106.949 88.1339 106.042H129.1V105.232C122.183 100.067 116.258 93.694 111.61 86.4197V86.4197ZM98.1586 64.9768L88.0201 48.7951C93.1384 52.8819 96.7138 58.5885 98.1586 64.9768V64.9768ZM69.9473 44.899L49.8837 79.2105C49.8837 78.2862 49.7841 77.3619 49.7841 76.3666C49.7984 61.1376 56.8654 47.4443 69.9473 44.899ZM73.9856 107.564C73.1893 107.564 72.4214 107.564 71.6394 107.678C59.041 106.156 51.4762 94.8803 50.0401 81.2438L71.3692 44.6715H71.7816L98.2865 86.4481C97.7808 88.5395 97.1006 90.5848 96.2532 92.5625C94.7612 95.2932 93.1089 97.9331 91.3048 100.468C91.2468 100.534 91.1851 100.595 91.12 100.653L90.0677 101.748C86.6634 105.071 82.2418 107.154 77.512 107.664C76.3555 107.578 75.18 107.536 73.9856 107.536V107.564Z" fill="#2C2C2C"/>
</svg>
