<svg width="156" height="156" viewBox="0 0 156 156" fill="none" xmlns="http://www.w3.org/2000/svg">
<rect x="0.5" y="0.5" width="155" height="155" stroke="#2C2C2C"/>
<circle cx="78" cy="78" r="77.5" stroke="#2C2C2C"/>
<path d="M118.539 115.722C116.273 114.666 115.294 113.028 115.294 108.85V75.0711C115.99 72.1323 116.339 69.1222 116.335 66.1022C116.335 48.7155 103.631 37.2367 87.5609 34.5276C72.1945 29.1555 55.5118 32.9512 47.0481 48.1339C46.8134 48.5421 46.5991 48.9553 46.4052 49.3737C44.9335 51.8357 43.898 54.5333 43.3442 57.3477C43.1758 58.0364 43.0228 58.7098 42.885 59.3986C41.4433 63.5782 40.7189 67.9715 40.7423 72.3927C40.7124 76.3765 41.4234 80.3313 42.8391 84.0552V102.62C42.8391 107.625 41.431 113.671 36.916 115.66V116.579H50.8284C47.0249 122.284 45.0398 129.007 45.1349 135.863V155.714H46.0991V135.924C46.0936 129.017 48.2328 122.279 52.2212 116.64H54.4558V115.722C53.9738 115.697 53.4935 115.646 53.0171 115.569C55.3236 112.579 58.2122 110.089 61.5084 108.247C64.8045 106.406 68.4398 105.252 72.1945 104.855C76.7844 106.23 81.5963 106.708 86.3671 106.263C97.8919 110.457 104.412 122.333 104.412 139.185V155.714H115.126V139.185C115.126 129.772 112.661 122.349 108.498 116.64H118.493L118.539 115.722ZM52.9252 77.0301C51.5 72.1732 50.8542 67.1209 51.0121 62.0617C53.3414 57.6027 56.3577 53.538 59.9503 50.0165C67.8172 42.2721 77.5207 37.7723 86.6426 38.0937C94.586 42.1037 100.723 50.4756 103.892 60.6995C104.063 62.224 104.15 63.7569 104.152 65.2911V86.8255C102.215 92.536 98.1614 97.2858 92.8259 100.095C88.3937 102.02 83.6076 102.994 78.7757 102.957C66.5928 101.794 57.0117 91.0038 52.9252 77.0301Z" fill="#2C2C2C"/>
</svg>
