<svg xmlns="http://www.w3.org/2000/svg" viewBox="0 0 20.52 8.21"><path d="M20.52,4.11v-1l-1,.4L10.54,0l0,.09a6.63,6.63,0,0,1,.86.94A2.68,2.68,0,0,0,9.2,3.55H.9c-.48,0-.68-.12-.8-.33H0V5H.1c.12-.22.32-.33.8-.33H9.25a3.24,3.24,0,0,0,2.18,2.41,7,7,0,0,1-.93,1.05l0,.08ZM12.2,5.89h0v-4h0s.05,0,.07,0a2.21,2.21,0,0,1,2.52,1.46,2.19,2.19,0,0,1-1.14,2.51C12.89,6.1,12.49,6.17,12.2,5.89ZM19.37,3.6,14.83,5.36A3.77,3.77,0,0,0,15,4.23a3.34,3.34,0,0,0-1.28-2.62,6.38,6.38,0,0,1,.68.21ZM11.44,2l.4-.09a3.63,3.63,0,0,1,.24,1.33v.32H9.46A3,3,0,0,1,11.44,2ZM9.38,4.9a1.85,1.85,0,0,1,0-.23h2.74V5a3.48,3.48,0,0,1-.27,1.39A2.19,2.19,0,0,1,9.38,4.9Z" fill="#ECE9E5"/></svg>