<svg xmlns="http://www.w3.org/2000/svg" viewBox="0 0 8.3 9.77"><g id="Layer_2" data-name="Layer 2"><g id="Layer_1-2" data-name="Layer 1"><path d="M8.3.08V0H2V.1c.19.1.28.27.28.7v.57H0v.1c.19.11.28.27.28.71V9c0,.42-.09.6-.28.7v.09H6.35v-.1c-.19-.11-.28-.27-.28-.71V8.4H8.3V8.3C8.11,8.19,8,8,8,7.59V.79C8,.37,8.11.19,8.3.08ZM5.13,8.35A3.61,3.61,0,0,1,2.32,9.68H1.22V2.79A3.62,3.62,0,0,1,4,1.46H5.13ZM7.08,7a3.73,3.73,0,0,1-1,.86V2.16c0-.42.09-.6.28-.7V1.37H3.22A3.59,3.59,0,0,1,6,.08H7.08Z"/></g></g></svg>