<svg xmlns="http://www.w3.org/2000/svg" viewBox="0 0 64.91 89.24"><g id="Layer_2" data-name="Layer 2"><g id="Layer_2-2" data-name="Layer 2"><path d="M25.1,36.55H21.94l1.32,1-6,5.06a11,11,0,0,1-4.19,2.2v.1h4.75v-.1c-1.72-.54-1.52-1.12-.24-2.2l5.83-4.94,7.11,5.54c1.12.87,1.43,1.29.44,1.6v.1h6.11v-.1a15.9,15.9,0,0,1-4.16-2.2C31.73,41.7,25.1,36.55,25.1,36.55Z"/><path d="M64.17,18.1c-1,.63-2.58.88-6.29.71l-10.42-.69.1-2.22C48,7,41.58.74,26.67.06S4.72,5,4.31,13.93L4,20.77h.21A24.42,24.42,0,0,0,0,34.79C0,46.11,7.93,53.42,18.2,55.34h0l.49.14C9.19,57.75,2.87,65.83,2.87,76.3V89.24H3.5V76.3C3.5,66.49,10,57.11,20.62,56a21.19,21.19,0,0,0,6.82.28c9,1.91,14.16,10.08,14.16,22.18v10.8h7V78.44c0-13.35-7.56-20.72-17.64-22.9a23.38,23.38,0,0,0,12.19-8.46,24.2,24.2,0,0,0,6.21-16.37,20.35,20.35,0,0,0-1.93-8.84l10.26.52c3.7.17,5.28.56,6.2,1.33l.74,0,.25-5.62ZM40.21,46H37.15v.07c1.41.41,1.31.84.29,1.66L35.93,49a20.24,20.24,0,0,1-4.3,1.59L27,47.27c-.92-.66-1.19-1-.33-1.21V46H21.62v.07a12.09,12.09,0,0,1,2.93,1.32l-.4.34-3.77,3.06c-.89-.18-1.77-.39-2.63-.65l-4-2.86c-.92-.66-1.19-1-.33-1.21V46H11.69A30.18,30.18,0,0,1,8,37.82C6.13,31.48,6.22,25,8.48,20c.74,0,1.6,0,2.65,0l27.73,1.39a31,31,0,0,1,2.57,6.24c1.79,6.2,1.74,12.49-.38,17.48C40.78,45.45,40.5,45.72,40.21,46Z"/></g></g></svg>