<svg xmlns="http://www.w3.org/2000/svg" viewBox="0 0 51.54 84.92"><g id="Layer_2" data-name="Layer 2"><g id="Layer_2-2" data-name="Layer 2"><path d="M51.49,17.4a1.34,1.34,0,0,0-1-1.08A2.25,2.25,0,0,0,51,15.07h0l.06,0-.16-1.21-.24-.06a1.72,1.72,0,0,0-1.45-.87l.27-.07.86-.22a2.29,2.29,0,0,0-2.6-1.37A2.22,2.22,0,0,0,47.91,10a1.68,1.68,0,0,0-.06-.24l.32-.67A4,4,0,0,0,47,8.1L47.29,8a2.25,2.25,0,0,0-2.43-1.38,1.71,1.71,0,0,0-1.15-1.12c0-.17,0-.34-.07-.49a3.27,3.27,0,0,0-3.78-2.65,2.78,2.78,0,0,0-2.31,2.48A2,2,0,0,0,37.1,5a1.62,1.62,0,0,0,0-.22,2.07,2.07,0,0,0-.85-1.4A2,2,0,0,0,36,2.91l.45-.12A2.19,2.19,0,0,0,34.39,1.4l.15-.12a2.44,2.44,0,0,0-3.37.22,4.14,4.14,0,0,0-.69.88,3,3,0,0,0-1.17.35,2,2,0,0,0-1,0,1.35,1.35,0,0,0-1.23-.27,3.22,3.22,0,0,0-.23-.5,2.63,2.63,0,0,1,.37-.47,3,3,0,0,1,3-.38l0,0-.67-1a3.76,3.76,0,0,0-2.22,1.09,3.28,3.28,0,0,0-.55.72,3.54,3.54,0,0,0-.57-.75L26,.86a4.21,4.21,0,0,1,1.11.21l0,0-.67-1a4,4,0,0,0-1.25.39,1.72,1.72,0,0,0-1.8.21,1.31,1.31,0,0,0-.3,1.47,1.7,1.7,0,0,0-1.49,0l.21-.18.68-.57a2.29,2.29,0,0,0-2.94-.1A3.66,3.66,0,0,0,18.39,1a2.35,2.35,0,0,0-2,.92,3.41,3.41,0,0,0-3.27.86,2.7,2.7,0,0,0-1.05,2,2.21,2.21,0,0,0-2,1,2.57,2.57,0,0,0-.89-.2A1.58,1.58,0,0,0,7.33,7c-.2,1.58,1.61,1.79,2.76,2.22a2.67,2.67,0,0,0-.32.48,4.25,4.25,0,0,0-.41,1.48H9.2A2.12,2.12,0,0,0,8.82,10a1.85,1.85,0,0,0-2.31-.77l.21-.18L7.4,8.5A2.45,2.45,0,0,0,4,8.73a4.25,4.25,0,0,0-1,1.47,1.8,1.8,0,0,0-1.19,1.72,1.19,1.19,0,0,0,.64,1,1.67,1.67,0,0,0-.61.63l0-.46A2.43,2.43,0,0,0,0,15.88a3.78,3.78,0,0,0,1.5,2.62l-.19.11c-1.72,1.21-1.5,3.08-.54,4.53a3.53,3.53,0,0,0,.34.41,1.9,1.9,0,0,0,.15.53c-2.59,9.84,2,18.28,9.93,23.14a1.16,1.16,0,0,0,0,.93L11.09,48l-.4-.47a1.69,1.69,0,0,0,.15,2.34,2.9,2.9,0,0,0,1,.68,1.25,1.25,0,0,0,1.2.82.81.81,0,0,0,.67-.45,1.14,1.14,0,0,0,.43.44h-.32a1.61,1.61,0,0,0,1.66,1.29C8.39,56,3.9,63.17,3.9,72V84.92h.62V72c0-10,6.68-19.5,17.62-20.38,12.91-1.08,20.48,7.83,20.48,22.52v10.8h7V74.12c0-11.73-5.83-18.84-14.09-21.87l.07-.08a1.07,1.07,0,0,0,.91-.49.77.77,0,0,0,0-.79,1.29,1.29,0,0,0,.6.1,1.15,1.15,0,0,0,1.15-1l0,.17.09.55a1.44,1.44,0,0,0,1-1.56l.42.32a2.35,2.35,0,0,0,1.08-1.1,1.26,1.26,0,0,0-.3-1.74h0A24.18,24.18,0,0,0,50,33.36a20,20,0,0,0,.35-10.27l.11-.13v0l.06,0,.55-1.1-.17-.18a1.72,1.72,0,0,0-.71-1.53l.26.09.84.3A2,2,0,0,0,51,19,1.56,1.56,0,0,0,51.49,17.4Zm-.15.5a1,1,0,0,1-.36,1,3,3,0,0,0-1.56-1.1,3.84,3.84,0,0,0-1.25-.14l-.11-.2a4.88,4.88,0,0,0,.84-.13,3,3,0,0,0,.42-.15C50.28,17.16,51.17,17.17,51.34,17.9ZM37.86,13.56a3.45,3.45,0,0,1-.39-.82,2,2,0,0,0,1.14,0A19,19,0,0,1,40,14.83a2.29,2.29,0,0,1-1.59-.68,3.38,3.38,0,0,1-.12-.57l-.06,0-.12.27Zm-2.37-1.28a1.48,1.48,0,0,1-.76-.56,4.28,4.28,0,0,0,1,0,2,2,0,0,0,.76.22,2.3,2.3,0,0,0,0,.26A1.47,1.47,0,0,1,35.49,12.28Zm-1.75-2.16a3.6,3.6,0,0,1-.43-.93h.06a2.22,2.22,0,0,0,.84-.49,1.8,1.8,0,0,0,.33.4,2.32,2.32,0,0,0,.43,2.1,2.39,2.39,0,0,1-.72-.48,3.38,3.38,0,0,1-.12-.57l-.06,0-.12.26ZM31.29,8V8a4.49,4.49,0,0,0,.5-.65c.25.1.49.21.72.32a2.78,2.78,0,0,0-.23,1.17A3.25,3.25,0,0,1,31.29,8Zm-7.2-1a7,7,0,0,0-.35-.73,16.51,16.51,0,0,1,1.88-.11h.16v0C25.18,6.44,24.59,6.81,24.09,7ZM13.16,8.67c-.23.12-.45.26-.68.39l.35-.59A2.63,2.63,0,0,1,13.16,8.67ZM18.82,2a1.84,1.84,0,0,1,.44-.4,3.8,3.8,0,0,1,1.13,1.35l-1.06.91a4.94,4.94,0,0,0-.88-.37A1.89,1.89,0,0,1,18.82,2ZM22,5.12a2.58,2.58,0,0,0,.38.32c0,.06,0,.13.05.19a1.7,1.7,0,0,0-1.49,0l.21-.18.65-.55A2.94,2.94,0,0,0,22,5.12Zm1.37-1.07a.84.84,0,0,1,.42-.14l.16.14.08.2a2.86,2.86,0,0,0-.47.4,3.13,3.13,0,0,0-.38.45A.84.84,0,0,1,23.39,4.05ZM33.78,1.78,31.91,3.37a1,1,0,0,0-.12-.23,2,2,0,0,1,1-1.32,2.13,2.13,0,0,1,.75-.19Zm1.78,1.14-2.13.56a3.81,3.81,0,0,0-1.46,0s0,0,0-.06l1.29-1.09a1.64,1.64,0,0,1,1.66-.3A2.18,2.18,0,0,1,35.56,2.92ZM35.5,5.55a3,3,0,0,0-.7.12,4,4,0,0,0-1,.49A3.55,3.55,0,0,0,32.35,6,2.33,2.33,0,0,0,32,4.34a1.41,1.41,0,0,0,0-.4l.29-.08a3.82,3.82,0,0,1,1.77,1l.06,0L34,3.62c-.12,0-.25-.06-.38-.09l1.2-.31a1.64,1.64,0,0,1,1.28.18A2.32,2.32,0,0,1,35.5,5.55Zm2.37,0a2.2,2.2,0,0,1,.44.12l-.4.68h0A3.16,3.16,0,0,1,37.87,5.59Zm7,1.93c0,.07,0,.13,0,.19a1.69,1.69,0,0,0-1.38,1.12s0,.05,0,.07l-.94.25A2.5,2.5,0,0,1,43,7.57l.17-.21a1.87,1.87,0,0,1,1.64-.49A2.72,2.72,0,0,1,44.88,7.52Zm.14.27a2.08,2.08,0,0,1,.69,0,1.9,1.9,0,0,1,.64.31l-1.43.37a4.08,4.08,0,0,0,.1-.64Zm-.63.87-.48.12a.63.63,0,0,1,0-.38,1.13,1.13,0,0,1,.88-.58A2.24,2.24,0,0,1,44.39,8.66ZM46.85,12a1,1,0,0,0,0-.39,2.35,2.35,0,0,1,.57-.13A2.27,2.27,0,0,1,46.85,12Zm-2,1.37-.55-.54a4.41,4.41,0,0,0,.89,0,2.86,2.86,0,0,0-.3.54ZM33.16,8l.12.07-.13,0S33.16,8,33.16,8Zm-1.79-.57a1.84,1.84,0,0,0-.05-.25l.19.07ZM22.42,9.21a1.53,1.53,0,0,1-.85-.46,1.63,1.63,0,0,1-.35-1.25.91.91,0,0,1,1.07-.12A1.2,1.2,0,0,1,22.57,9,1.43,1.43,0,0,1,22.42,9.21Zm-3.89-.49-.18-.23A1.11,1.11,0,0,1,19,8.3,4.44,4.44,0,0,1,18.53,8.72Zm-3.38,3.5a1.36,1.36,0,0,1-1.24,0,1.24,1.24,0,0,1-.38-.31,17.28,17.28,0,0,1,1.36-1.47l0,0a1.46,1.46,0,0,0,.23.1,2.27,2.27,0,0,1,.25.31A2.41,2.41,0,0,1,15.15,12.22Zm1.42-6a4.23,4.23,0,0,0,.79.43h0l-.11.29-.67.22L16.29,7,16,6.85a3.75,3.75,0,0,1,1.11-.17l0-.06Zm3.19-.82-.63-.48.12,0A1.14,1.14,0,0,1,19.76,5.36Zm6.67-.73,0,0,0,0a2.09,2.09,0,0,1,.47-.65,1.18,1.18,0,0,0,.35.26,3.74,3.74,0,0,0-.59.49,3.51,3.51,0,0,0-.4.48,2.17,2.17,0,0,1,.09-.41l.05-.1Zm-.09.65A1.78,1.78,0,0,1,26.55,5a2.52,2.52,0,0,1,2-.58l-.47.8A2.4,2.4,0,0,1,26.34,5.28Zm2.33-.84h.09a1.57,1.57,0,0,1-.38.61s-.08,0-.11.07Zm-1-.94a.76.76,0,0,1,.2-.06ZM26.16,5.21l-.16,0a3.58,3.58,0,0,0-.45-.54l-.23-.2a3.94,3.94,0,0,1,1,.18A3.91,3.91,0,0,0,26.16,5.21Zm-7.56.72a1.77,1.77,0,0,0,.12.17,2.35,2.35,0,0,0,.29.26c-.31.09-.62.17-.92.27l-.22-.11c.05-.08.09-.17.14-.26A3.08,3.08,0,0,1,18.6,5.93Zm5.25-.46a3.12,3.12,0,0,0,.29-.53.72.72,0,0,1-.28.52Zm-.43.14h0a3.35,3.35,0,0,1-.15-.35A2.07,2.07,0,0,1,23.45,5a1.83,1.83,0,0,1,.6-.39A2.39,2.39,0,0,1,23.42,5.61Zm-3,.43.13-.11a1.63,1.63,0,0,1,1.83-.21C21.73,5.8,21.08,5.91,20.43,6Zm-.73-.38h.12a.31.31,0,0,1,0,.1ZM15.9,7a1.87,1.87,0,0,1,.4.27l-.82.32A1.84,1.84,0,0,1,15,7.36a2.91,2.91,0,0,1,.79-.44ZM14.47,8l0,0s0,0,0,0Zm4.77,0L19.11,8a1.59,1.59,0,0,0-.48-.2,13.39,13.39,0,0,1,1.65-.7h0A8.05,8.05,0,0,0,19.24,8Zm5.13-2.67a1.34,1.34,0,0,0,.56-1h.16l.1.07a2.08,2.08,0,0,1,.52,1c-.54,0-1.09,0-1.63.06Zm2.86,1.35-.18.3-.2-.22A1.84,1.84,0,0,1,27.23,6.72Zm.11,0a.83.83,0,0,1,.32.06,3.79,3.79,0,0,1-.47.21Zm.54-.23a1.14,1.14,0,0,0-.22-.22l.78.11L28,6.62Zm2.21-1.15a.79.79,0,0,1,0-.34,2.41,2.41,0,0,0,.16.42h-.16S30.09,5.36,30.09,5.34Zm1.83-1.47-.25.06a.43.43,0,0,1,0-.11h.22S31.91,3.85,31.92,3.87ZM32,3.81h.05l-.05,0Zm-.12.43A1,1,0,0,0,31.74,4l.18,0A.82.82,0,0,1,31.92,4.24Zm4,5.85.22.15a4.17,4.17,0,0,0,.5.4c.06,0,.1.1.15.15a2.94,2.94,0,0,0-.23.51l-.21,0A2.3,2.3,0,0,1,35.93,10.09ZM30.76,4.47l.08-.07c0,.07,0,.12,0,.19Zm.1-.21-.14.12a.94.94,0,0,1-.06-.15l.21-.12A.76.76,0,0,0,30.86,4.26ZM39.23,8a1.6,1.6,0,0,0,.07.33A2,2,0,0,1,38.81,8h0a3.63,3.63,0,0,0-.47-.49l0,0A3.56,3.56,0,0,1,39.23,8Zm-1.74-.43a3.48,3.48,0,0,1,.54.93c-.31-.16-.63-.31-1-.45l.24-.41Zm3,2.12-.13.11L40,9.56l0-.2a2.73,2.73,0,0,1,.43.26A.06.06,0,0,0,40.48,9.66Zm-.57-.16-.47-.28a2,2,0,0,1,.5.11Zm-.17-.73.14-.21.15.19,0,.16A.73.73,0,0,1,39.74,8.77Zm0,.21h-.2l.09-.12ZM37,8l-.14-.07.29-.2Zm-1-.41a2.25,2.25,0,0,1,.45-.19c-.07.09-.13.19-.2.29ZM41,10.15,40.72,10a.24.24,0,0,1,0-.08l0,0c.07.09.15.18.21.27ZM40.14,9l0,0V8.87a.61.61,0,0,1,.07.1Zm-.47-.27a.91.91,0,0,1-.18-.21l.28,0Zm-.08.1L39.45,9l-.3.05L38.5,8.7v0l.24-.51a2,2,0,0,0,.63.29A1.17,1.17,0,0,0,39.59,8.8ZM37.4,11.32a.09.09,0,0,0,0-.05,2.09,2.09,0,0,1,.14.17l-.23.06A1.42,1.42,0,0,0,37.4,11.32Zm4.33-2.15a2.6,2.6,0,0,0-.07.56,2,2,0,0,0-.5-.42h0a1.37,1.37,0,0,0,.53-.25Zm-.5-.93a1.52,1.52,0,0,1-.52.61,3.38,3.38,0,0,0-.09-.41,2.14,2.14,0,0,0,.55-.25S41.22,8.22,41.23,8.24Zm-1.8.1a1.32,1.32,0,0,1-.1-.3,3.79,3.79,0,0,1,.42.38A1.67,1.67,0,0,1,39.43,8.34Zm-3.92-1v0a3,3,0,0,0,.4-.2l-.31.28Zm1.76,4.27.35-.1a1.79,1.79,0,0,1-.34.22A.49.49,0,0,1,37.27,11.62Zm.8.41a2.6,2.6,0,0,1-.47-.16l.15-.21Zm2.51-3.68a2.23,2.23,0,0,0-.3-.57l0-.18a3.06,3.06,0,0,1,.79.51A2.25,2.25,0,0,1,40.58,8.35Zm-.38-.69-.11-.15.13,0Zm-4-.79.12-.1h0ZM35.56,7a1,1,0,0,1,0-.14,1.3,1.3,0,0,1,.08-.17,1.91,1.91,0,0,1,.41,0A2.47,2.47,0,0,1,35.56,7Zm-.08,0-.13.05L35,7.18l-.28-.1a1.36,1.36,0,0,1,.82-.36A3.37,3.37,0,0,0,35.48,7.06Zm-1.35-.71-.21-.13A2.45,2.45,0,0,1,34.29,6a2,2,0,0,1,1-.19A2.74,2.74,0,0,1,34.13,6.35Zm-2-.57a3.9,3.9,0,0,1-.37-1,1.46,1.46,0,0,0,.16-.3A2.27,2.27,0,0,1,32.15,5.78Zm-.4-1.09a5.35,5.35,0,0,1-.07-.56,1.15,1.15,0,0,1,.19.26A1.25,1.25,0,0,1,31.75,4.69Zm-.84-.75a2,2,0,0,0-.28.19,2.6,2.6,0,0,1-.17-.65,1.71,1.71,0,0,1,.55.16A1.51,1.51,0,0,0,30.91,3.94Zm-.37,1.88.05.07-.11,0ZM33.41,8.1c.25.14.49.29.73.44l0,.06a1.61,1.61,0,0,1-.64.41.7.7,0,0,1-.25.05,3.36,3.36,0,0,1-.13-.89Zm1.32,1.16a8.45,8.45,0,0,0,1,.67,2.6,2.6,0,0,0,.47,1.44,2.59,2.59,0,0,1-.93-.08A2.09,2.09,0,0,1,34.73,9.26Zm1.65,2.38a.27.27,0,0,0,.08.07c0,.06,0,.12,0,.17a1.68,1.68,0,0,1-.55-.15A4.21,4.21,0,0,0,36.38,11.64Zm.91.19a1.87,1.87,0,0,0,.38-.24l-.16.23-.18.27h0A2.11,2.11,0,0,1,37.29,11.83Zm8.45.89.12,0a3.39,3.39,0,0,0,.54-.2.73.73,0,0,1,0,.25,1,1,0,0,1-.79.61A2.74,2.74,0,0,1,45.74,12.72Zm.43-.39-.27.06a1.91,1.91,0,0,1,.33-.42.82.82,0,0,1,.14.28Zm-.67.12a2.33,2.33,0,0,1-1.9-.66,4.78,4.78,0,0,1-.12-.57l0,0-.13.26-.21-.26a3.7,3.7,0,0,1-.59-1.95L43.42,9a1.16,1.16,0,0,0,0,.46,3.33,3.33,0,0,1-.56.29v.06l.94.27c.63.68,1.83,1.17,2.34,1.79A4.35,4.35,0,0,0,45.5,12.45ZM44,9.05a.91.91,0,0,1-.09-.17l.36-.09Zm-.9-2.63.12-.17A1,1,0,0,1,43.11,6.42ZM41.4,7.81A2.84,2.84,0,0,0,40,6.51a3.08,3.08,0,0,1,.73-.44A2,2,0,0,1,41.4,7.81ZM39.51,6.39l-.33-.08a3.14,3.14,0,0,0-1.12.06A1.65,1.65,0,0,1,40,5.69,4.42,4.42,0,0,0,39.51,6.39Zm-2.87.27-.13,0,.14-.18a.76.76,0,0,1,.11.14Zm-.12-.34a2.37,2.37,0,0,1-.27.28,2.26,2.26,0,0,0-.52,0,2,2,0,0,1,.43-.55A2.42,2.42,0,0,1,36.52,6.32Zm.18-.61.19-.06s0,.08,0,.11Zm-1,.61-.12.29a1.92,1.92,0,0,0-1,.42l0,0a1.34,1.34,0,0,0-.14-.32,4.88,4.88,0,0,0,.87-.58c.11-.09.2-.2.3-.3A2,2,0,0,1,36,6,3.73,3.73,0,0,0,35.75,6.32Zm-4-2.87a.08.08,0,0,1,0,0l0,0a.28.28,0,0,1,0-.09Zm-.7.09a2.3,2.3,0,0,0-.59-.17s0-.05,0-.08a1.57,1.57,0,0,1,.8-.12A2.64,2.64,0,0,0,31,3.54Zm-1-.08a3,3,0,0,0,0,1.37,1.84,1.84,0,0,0-.17.55,3.75,3.75,0,0,1-.93-.27l-.05,0,.39.6c-.43-.06-.86-.11-1.29-.14l.09-.15a1.41,1.41,0,0,0,.23-.18,2.33,2.33,0,0,0,.55-.81,3.35,3.35,0,0,1,.66.16l0,0-.45-.7L30,3.47ZM26.28,4l.45-.29.06.08a2.47,2.47,0,0,0-.27.42,2.71,2.71,0,0,0-.13.3L26,3.89l.26-.12s0,.1,0,.14ZM20.27,6,20.13,6A1.1,1.1,0,0,0,20,5.88a2,2,0,0,0,.14-.54,1.57,1.57,0,0,0,0-.49,2.17,2.17,0,0,1,1,.49ZM18.9,4.74s0,0,0-.08l.1,0Zm-1,1-.07.1a4.13,4.13,0,0,0-.32.46,3.17,3.17,0,0,1-.76-1.06l.86-.73A2.74,2.74,0,0,1,17.94,5.72ZM16.38,6l-.21-.16a4.48,4.48,0,0,0-1,.66l1.29-1.08Zm-1.26.62h0l.1-.08A.27.27,0,0,0,15.12,6.66Zm-.09.1a4.47,4.47,0,0,0-.32.41,1.25,1.25,0,0,1-.12-.08L15,6.76ZM14.26,7a1.74,1.74,0,0,0,.46-.13L14.51,7,14,7.49a.57.57,0,0,1,.11-.34A.68.68,0,0,1,14.26,7Zm-.3.72a2.12,2.12,0,0,0,.36.25,1.22,1.22,0,0,0-.07.17l-.07,0A1.17,1.17,0,0,1,14,7.69ZM12.31,9.16c-.32.19-.64.39-1,.6v0A1.11,1.11,0,0,0,11.16,9a2.24,2.24,0,0,1,1.17.13ZM13.41,12a2.11,2.11,0,0,0,.27.18,1.92,1.92,0,0,0,1.37.2,2.52,2.52,0,0,1-2.81,1.24A15.91,15.91,0,0,1,13.41,12Zm2.21-.7a.74.74,0,0,1-.1.59h0A2.51,2.51,0,0,0,15.62,11.31Zm.07-1.63.24-.2-.24.2Zm4-.8a1.26,1.26,0,0,1,0,.8l-.31-.15c-.1-.06-.19-.14-.29-.21A3.79,3.79,0,0,0,19.73,8.88Zm.1-.09c.34-.32.67-.68,1-1a2.79,2.79,0,0,0,.53.86,2.09,2.09,0,0,0,1,.61,2.73,2.73,0,0,1-2.08.58,3.31,3.31,0,0,1-.41-.14A1.56,1.56,0,0,0,19.83,8.79Zm2.68.53h.06l-.13.11Zm.07-.11A1.59,1.59,0,0,0,22,6.92l-.06,0a4.59,4.59,0,0,0,.77-.38,1.54,1.54,0,0,0,.38.93,1.41,1.41,0,0,0,.18.17,2.05,2.05,0,0,1,.13.37,2.48,2.48,0,0,1-.7,1.22Zm.89-.71a.72.72,0,0,1-.28.52h0A3.12,3.12,0,0,0,23.47,8.5Zm4.45-.83.24-.09a1.34,1.34,0,0,1,0,.2Zm.37-.15a11.5,11.5,0,0,1,1.81-.77l1,.31a1.05,1.05,0,0,1,.15.43A2.55,2.55,0,0,1,28.92,8a3.68,3.68,0,0,1-.67-.21A1.15,1.15,0,0,0,28.29,7.52Zm2.85.63a1.6,1.6,0,0,1-.34.47A1.62,1.62,0,0,1,29.61,9,3.14,3.14,0,0,0,31.14,8.15Zm9,7c.1.18.19.37.28.55a1.49,1.49,0,0,1-.82,0,1.43,1.43,0,0,1-.76-.56A4.05,4.05,0,0,0,40.15,15.15Zm8.08,2.6a1.73,1.73,0,0,1,.6,0,1.92,1.92,0,0,1,1.62,1.47l-.05,0a1.86,1.86,0,0,1-1.58-.4C48.64,18.47,48.44,18.11,48.23,17.75Zm2.05-1.49c-1.28-.26-3.12.38-3.32-.7-.11-.51.36-1.14,1.17-1.43a2.94,2.94,0,0,1,2.72.83A2,2,0,0,1,50.28,16.26Zm.22-2.51a3.69,3.69,0,0,0-2.09.11,2.29,2.29,0,0,0-1.66,1.67c-.38-.5-.78-1-1.2-1.45,0-.07,0-.14,0-.21l3.16-.82A1.66,1.66,0,0,1,50.5,13.75Zm-1.08-1-3.89,1a2.77,2.77,0,0,1,0-.3,1.52,1.52,0,0,0,1.19-1.07.29.29,0,0,0,0-.1,2.56,2.56,0,0,0,.84-.83A2.07,2.07,0,0,1,49.42,12.76Zm-1.61-2.71a1.93,1.93,0,0,1-.29,1.24l-.33.08c-.13,0-.26.1-.38.15-.26-.92-1.53-1.42-2.32-2a3.51,3.51,0,0,0,.4-.9l.77-.2a1.76,1.76,0,0,1,1.11.1,3.75,3.75,0,0,1,.81,1.65l.06,0,.13-.28S47.8,10,47.81,10.05ZM46.63,8.39a2,2,0,0,0-.47-.09l.26-.06h0ZM46.2,7.8l-.12,0A3,3,0,0,0,45,7.69a2.9,2.9,0,0,0-.08-.8A2.12,2.12,0,0,1,46.2,7.8ZM44,5.87a1.1,1.1,0,0,1,.72.77,3.75,3.75,0,0,0-.6.11,3.66,3.66,0,0,0-.78.37,2.76,2.76,0,0,0,.35-1.24A.8.8,0,0,1,44,5.87Zm-.65-1.38a2,2,0,0,1,.12,1c-.73-.09-1.16.45-1.51,1.13l-.63-3.4A2.23,2.23,0,0,1,43.38,4.49Zm-4.11-.84a3.79,3.79,0,0,1,2-.46l.6,3.21a1.76,1.76,0,0,1,0,.46c-.1.21-.19.42-.28.64A2.22,2.22,0,0,0,40.79,6l.39-.14V5.82l-1.08-.31a.27.27,0,0,0-.08.1A1.75,1.75,0,0,0,38.26,6l.14-.24L38.86,5a2.13,2.13,0,0,0-.75-.17A2.87,2.87,0,0,1,39.27,3.65Zm-1.76,1.9a4.78,4.78,0,0,0,.08.76s0,0,0,0A2.18,2.18,0,0,0,37,5.82l.06-.22A2.4,2.4,0,0,1,37.51,5.55ZM37,4.84a1.48,1.48,0,0,1,0,.21,2.9,2.9,0,0,0-.71.54,2.4,2.4,0,0,0-.46,0,2.44,2.44,0,0,0,.46-2A2,2,0,0,1,37,4.84Zm-.9-1.56a1.7,1.7,0,0,0-.75-.19L35.6,3l.31-.08A2.16,2.16,0,0,1,36.08,3.28ZM34.7,1.92A1.72,1.72,0,0,0,33.64,2l.22-.18.22-.18A1.76,1.76,0,0,1,34.7,1.92ZM30.83,2a2,2,0,0,1,2.57-.47l-.07,0A3.94,3.94,0,0,0,31.5,2.78a1.27,1.27,0,0,0-.88-.4A1.47,1.47,0,0,1,30.83,2Zm-4.38.63c-.6.26-1.19.63-1.69.81-.23-.6-.62-1.2-.83-1.73a2.07,2.07,0,0,1,.19-.25A2.33,2.33,0,0,1,25.76.86s.07,0,.1.08A2.34,2.34,0,0,1,26.45,2.62ZM24.06.49a1.1,1.1,0,0,1,1,0,3.51,3.51,0,0,0-.85.64,3.13,3.13,0,0,0-.38.45A.84.84,0,0,1,24.06.49Zm-.9,1.72a5.59,5.59,0,0,0,.26.63,1.6,1.6,0,0,0,.3,1,1.58,1.58,0,0,0-1,.37,1.18,1.18,0,0,0-.38,1.13l-.13-.1a2.39,2.39,0,0,1,0-2.53l0-.05-.95.61a4.11,4.11,0,0,0,.53,1.53,2.05,2.05,0,0,0-1.85-.43,1.73,1.73,0,0,0-.47-.42l1.81-1.53A1.65,1.65,0,0,1,23.16,2.21Zm-1.4-.43L20.51,2.85l.22-1.06a4.26,4.26,0,0,0-.85-.49A2.1,2.1,0,0,1,21.76,1.78ZM18,1.15a2,2,0,0,1,1.11.36,4.06,4.06,0,0,0-1.09,1.84h0a3.38,3.38,0,0,0-.41-.57A3,3,0,0,0,16.53,2,1.54,1.54,0,0,1,18,1.15ZM16.1,2.84c.06.67.65,1,1.36,1.3l.15.25-.86.73A.87.87,0,0,1,16.68,5h-.06l-.08.35L15.12,6.5a1.88,1.88,0,0,1-.23.16,1.83,1.83,0,0,0-.82.24A1.86,1.86,0,0,1,12.48,6a1.92,1.92,0,0,1-.3-1.06,3.25,3.25,0,0,1,2,1.79h.06l.25-1.2a3.73,3.73,0,0,0-2.3-.8A2.53,2.53,0,0,1,13,3.22,2.52,2.52,0,0,1,16.1,2.84Zm-4.28,2,.21,0a2.14,2.14,0,0,0,.38,1.17A2,2,0,0,0,13.93,7a1.65,1.65,0,0,0-.43.48.94.94,0,0,0-.12.3,10.63,10.63,0,0,0-2.4-1l.1-.46a3.72,3.72,0,0,0-.84-.49C10.32,5.32,11,4.88,11.82,4.88ZM7.63,6.6A1.19,1.19,0,0,1,9,5.66a1.49,1.49,0,0,1,.95.43,2.56,2.56,0,0,0-.05.27c-.07,1.15,1.27,1.47,2.37,1.87a2.15,2.15,0,0,0-1.46.38C9.68,7.87,7.5,7.79,7.63,6.6Zm2,3.7a2,2,0,0,1,.62-.88l-.08.36a3.1,3.1,0,0,0,.62.38c-.42.3-.84.62-1.24.95A1.87,1.87,0,0,1,9.61,10.3Zm-.86-.18a1.92,1.92,0,0,1,.3,1.06A3.25,3.25,0,0,1,7,9.39H7l-.25,1.19a3.7,3.7,0,0,0,2.3.81s0,.1,0,.15A22.74,22.74,0,0,0,6.9,13.6a2.22,2.22,0,0,1-.63,0l.07-.34a3.9,3.9,0,0,0-.71-.42,3.92,3.92,0,0,0-1.56-.49,4.45,4.45,0,0,1-.45-.68L5,10.53A4,4,0,0,1,6.2,11.66h.06l.08-1.22a4.79,4.79,0,0,0-.81-.34l.58-.49A1.74,1.74,0,0,1,8.75,10.12ZM1.29,20a3.5,3.5,0,0,1,.54-.55,2.52,2.52,0,0,1,1,.26c-.26.58-.51,1.18-.74,1.8A1.86,1.86,0,0,1,.7,21.4,3,3,0,0,1,1.29,20Zm1-3.58H2.22l-.13.6L2,15c.59.68,2,.89,2.8,1.34-.34.51-.67,1.05-1,1.6L3.42,18A3,3,0,0,1,2.28,16.45ZM2.8,18A3.49,3.49,0,0,1,2.15,18l0-.33A5.93,5.93,0,0,0,2.8,18Zm.51-7.79.28-.08a2.16,2.16,0,0,1,1.33.3L3.58,11.61A2.64,2.64,0,0,1,3.31,10.25ZM6,14.5H6a.3.3,0,0,0,0-.1l0,0S6,14.48,6,14.5Zm-.73,1.09h0ZM3.54,13.25s0,.05.06.07a2.72,2.72,0,0,0,2.11,1,2.85,2.85,0,0,1,.14.5c-.16.2-.31.41-.46.61l-.21.08a7.25,7.25,0,0,0-2-.84,3.53,3.53,0,0,1-.37-.55H2.71l0,.36A1.07,1.07,0,0,1,2.1,14,1.65,1.65,0,0,1,3,13.1ZM3.22,19l0,.05,0-.05ZM1.75,22.51c-.11.33-.22.66-.32,1h0c-.06-.07-.12-.13-.18-.21a1.21,1.21,0,0,1,.32-.82Zm4.47-8.14a.22.22,0,0,0,0-.08H6.3ZM3.7,9.21A2,2,0,0,1,6.64,9L5.41,10.06a3.51,3.51,0,0,0-1.5-.1,3.28,3.28,0,0,0-.58.14A1.79,1.79,0,0,1,3.7,9.21ZM2.16,11.35a1.25,1.25,0,0,1,.86-1,3,3,0,0,0-.08,1.82C2.48,12,2.16,11.79,2.16,11.35Zm.42,1.58.27.12a1.76,1.76,0,0,0-.78.77.74.74,0,0,1,0-.21A1,1,0,0,1,2.58,12.93ZM.2,16.44A2,2,0,0,1,1.72,14c0,.06,0,.11,0,.16a1.08,1.08,0,0,0,.16.68L2,17.42l0,.14,0,0,0,.38A2.24,2.24,0,0,1,.2,16.44ZM3,19l.09.13a4,4,0,0,0-.77,0A1.59,1.59,0,0,1,2.64,19,2.51,2.51,0,0,0,3,19ZM.7,22.06a1.32,1.32,0,0,0,.76.42,1.58,1.58,0,0,0-.32.67A2.88,2.88,0,0,1,.7,22.06ZM19.13,51.32a3.89,3.89,0,0,0,.19-.73l1,.22a1.5,1.5,0,0,1-.27.3Zm1.34-.48.41.08-.46.1C20.44,51,20.45,50.9,20.47,50.84Zm-1.86.61-.45.16a.67.67,0,0,1-.34-.36,2.12,2.12,0,0,0,.13-1s0,0,0-.08l.4.12.52.14A3.57,3.57,0,0,1,18.61,51.45ZM14,50.21l.06,0A2.08,2.08,0,0,0,14.71,49c.22.1.45.2.69.29A8.68,8.68,0,0,0,15,50.48a2,2,0,0,1-.38.26v0l.25,0a.68.68,0,0,1-.38.4,1.14,1.14,0,0,1-.59-.61C13.91,50.47,13.94,50.34,14,50.21Zm2-.66c.39.15.77.29,1.17.42a3,3,0,0,1,.08.32,2.13,2.13,0,0,1-1.05.79v0l.41.09-1.44.09A5.17,5.17,0,0,0,16,49.55Zm1.28,1.21a2.75,2.75,0,0,1,0,.41l-.23,0A3.48,3.48,0,0,0,17.28,50.76Zm.52.54a.85.85,0,0,0,.29.33l-.69.24A2.09,2.09,0,0,0,17.8,51.3Zm-6.55-4.06c.81.49,1.66.95,2.53,1.37,0,0,0,.1-.07.15a3,3,0,0,0-.34,1.08,2.13,2.13,0,0,1-.47.31l-.81-1a2.83,2.83,0,0,1,.78-.83v0l-.85,0a3,3,0,0,0-.23.56l-.35-.41A1.15,1.15,0,0,1,11.25,47.24Zm.59,2.93a1.51,1.51,0,0,1,.21-.92l.79.93a1.87,1.87,0,0,1-.94.19A1.17,1.17,0,0,1,11.84,50.17Zm-.66-.07a1.39,1.39,0,0,1-.14-2l.72.85a2.7,2.7,0,0,0-.07,1,3.19,3.19,0,0,0,.12.4A1.24,1.24,0,0,1,11.18,50.1Zm1.48,1.07a.87.87,0,0,1-.71-.6,2,2,0,0,0,1.26,0C13.12,50.94,13,51.17,12.66,51.17Zm1.09-.3a1,1,0,0,0,.1-.21,1.17,1.17,0,0,0,.55.57.49.49,0,0,1-.17,0A.75.75,0,0,1,13.75,50.87Zm.73.58s.07,0,.11,0a.84.84,0,0,0,.48-.12l1.8-.1.09,0s0,0,0,0l.27,0a1.94,1.94,0,0,1-.35.8c-.4.16-.79.34-1.18.52A1.42,1.42,0,0,1,14.48,51.45Zm18.13-1.09c.75-.21,1.5-.46,2.24-.73a.78.78,0,0,0,0,.21,3.14,3.14,0,0,0-.69.56s0-.06,0-.09h0l-.22.28a.68.68,0,0,0-.12-.12c-.42-.24-.81,0-1.18.33A.77.77,0,0,1,32.61,50.36Zm.49.79c.25-.25.48-.43.72-.41l-.09.12A1,1,0,0,1,33.1,51.15Zm-.15.16.08.06a.84.84,0,0,0,1,0l.24.25a1.77,1.77,0,0,1-.06.17c-.44-.14-.88-.26-1.33-.37Zm1.5.56,0-.06.25.15Zm0-.08,0,.06-.13,0a1.21,1.21,0,0,0,0-.14l.13.11Zm-.08-.68c.3-.27.57-.61.83-.82l.08.09-.69,1.17A2.26,2.26,0,0,1,34.34,51.11Zm-1.79-.74a.9.9,0,0,0,0,.47c-.09.09-.18.17-.26.26a1.44,1.44,0,0,1,.12-.7Zm3.4,1a1.41,1.41,0,0,1-.86.68L35,52a1.12,1.12,0,0,1-.43-.38l.69-1.18c.23.24.5.47.7.68,0,.06,0,.11,0,.17S36,51.31,36,51.33Zm-3.75-.11,0,0q-.67-.15-1.38-.27c0-.07,0-.14.07-.22.47-.1.94-.2,1.41-.33A1.65,1.65,0,0,0,32.2,51.22ZM30.73,51l-.49-.08.54-.11A1.33,1.33,0,0,0,30.73,51Zm5.45.9a.61.61,0,0,1-.51.24c.06-.08.11-.17.16-.25a3,3,0,0,0,.17-.45,1.72,1.72,0,0,0,.07-.21C36.25,51.43,36.34,51.65,36.18,51.88Zm.89-1a1.14,1.14,0,0,1-.71-.23,4.38,4.38,0,0,0-.29-.34,1.9,1.9,0,0,0-.33-.76,1.63,1.63,0,0,1,0-.31l.81-.35a1.78,1.78,0,0,1,.31,1.29l0,0,.43-.56a2.39,2.39,0,0,0-.66-.81c.45-.2.89-.42,1.32-.65l.24,1.46A1.08,1.08,0,0,1,37.07,50.92Zm1.27-.77L38,48.21a.86.86,0,0,0,.95-.05,1,1,0,0,1,.21.35,1.28,1.28,0,0,1,.08.46H39.2l0,0,.07.06A1.3,1.3,0,0,1,38.34,50.15ZM40.76,47a.91.91,0,0,1,.11,1.15,1.77,1.77,0,0,1-1.52.82s0-.08,0-.12a2.35,2.35,0,0,0-.3-.73C39.69,47.64,40.21,46.62,40.76,47Zm-13,3.62q-1.23-.09-2.49-.09c-.56,0-1.1,0-1.65.08a16.08,16.08,0,0,1-3.4-.8.77.77,0,0,0-.47-.18c-7.43-2.95-11.49-11.46-11.5-21a28.45,28.45,0,0,1,3.45-14.12,3.19,3.19,0,0,0,3.5-1.81,3.06,3.06,0,0,0,.23-.49,1.83,1.83,0,0,0,.56-.58,1.33,1.33,0,0,0,.16-1.23,5,5,0,0,0,1.11-.91v.14l.06,0,.32-.43a1.12,1.12,0,0,0,.22.16h0a2,2,0,0,0,.18.25,3.14,3.14,0,0,0,1.16.83,3,3,0,0,1-1.93.41l0,.06.89.69a4.09,4.09,0,0,0,1.32-1.09,2.75,2.75,0,0,0,1.53,0l.07.06a3.48,3.48,0,0,0,.36-.22,4.29,4.29,0,0,0,1.18-.73A2.73,2.73,0,0,0,23,9.29a1.88,1.88,0,0,0,.72-.36,1.34,1.34,0,0,0,.56-1.11,4.92,4.92,0,0,0,1.35-.49s0,.1,0,.14l0,0,.45-.29a1.7,1.7,0,0,0,.15.22,1.06,1.06,0,0,0,.42.3,2.86,2.86,0,0,0,1,.89l0,0a2.44,2.44,0,0,1-2.5,0l0,.05.61.95a3.7,3.7,0,0,0,1.9-.82l.13-.15a3.75,3.75,0,0,0,.6.24l.47.73a3.67,3.67,0,0,0,1.89-.82,2.26,2.26,0,0,0,.47-.62l.11.87a4,4,0,0,0,1.05.19,2,2,0,0,0,.06.34,2.78,2.78,0,0,0,1.43,1.81,3.3,3.3,0,0,0,1.42.9,2,2,0,0,0,1.15,0,2.71,2.71,0,0,0,.12.72A2.73,2.73,0,0,0,38,14.87a3.32,3.32,0,0,0,1.42.91,2.13,2.13,0,0,0,1.09,0A28.05,28.05,0,0,1,43.2,28.22C43.2,39.46,37.77,49.47,27.75,50.61ZM50.33,22.94c-.1-.41-.22-.82-.34-1.22a4.06,4.06,0,0,1,.45,1.09Zm.5-1.33a3.87,3.87,0,0,0-1.18-.86c-.11-.3-.23-.59-.35-.88l.42.15A1.65,1.65,0,0,1,50.83,21.61Zm-.34-1.43-1.25-.44a2.44,2.44,0,0,0-.1-.24,2.8,2.8,0,0,0,1.1-.09,1.75,1.75,0,0,0,.24-.11A2.17,2.17,0,0,1,50.49,20.18Z"/></g></g></svg>